<mxfile host="app.diagrams.net" agent="Mozilla/5.0 (Macintosh; Intel Mac OS X 10_15_7) AppleWebKit/537.36 (KHTML, like Gecko) Chrome/135.0.0.0 Safari/537.36 OPR/120.0.0.0" version="28.1.2">
  <diagram name="Page-1" id="pkdnSHDxVXIGqU9Hg34r">
    <mxGraphModel dx="958" dy="653" grid="1" gridSize="10" guides="1" tooltips="1" connect="1" arrows="1" fold="1" page="1" pageScale="1" pageWidth="850" pageHeight="1100" math="0" shadow="0">
      <root>
        <mxCell id="0" />
        <mxCell id="1" parent="0" />
        <mxCell id="sJjoMA-sm63TDEb1JcmF-1" value="SmellInspector Companion Software" style="shape=umlFrame;whiteSpace=wrap;html=1;pointerEvents=0;movable=1;resizable=1;rotatable=1;deletable=1;editable=1;locked=0;connectable=1;width=210;height=40;" parent="1" vertex="1">
          <mxGeometry x="280" y="240" width="600" height="350" as="geometry" />
        </mxCell>
        <mxCell id="sJjoMA-sm63TDEb1JcmF-2" value="Backend&lt;div&gt;(Flask Micro-Service)&lt;/div&gt;" style="html=1;dropTarget=0;whiteSpace=wrap;" parent="1" vertex="1">
          <mxGeometry x="320" y="370" width="180" height="90" as="geometry" />
        </mxCell>
        <mxCell id="sJjoMA-sm63TDEb1JcmF-3" value="" style="shape=module;jettyWidth=8;jettyHeight=4;" parent="sJjoMA-sm63TDEb1JcmF-2" vertex="1">
          <mxGeometry x="1" width="20" height="20" relative="1" as="geometry">
            <mxPoint x="-27" y="7" as="offset" />
          </mxGeometry>
        </mxCell>
        <mxCell id="sJjoMA-sm63TDEb1JcmF-4" value="Frontend + NginX&lt;div&gt;Reverse Proxy&lt;/div&gt;" style="html=1;dropTarget=0;whiteSpace=wrap;" parent="1" vertex="1">
          <mxGeometry x="670" y="280" width="180" height="90" as="geometry" />
        </mxCell>
        <mxCell id="sJjoMA-sm63TDEb1JcmF-5" value="" style="shape=module;jettyWidth=8;jettyHeight=4;" parent="sJjoMA-sm63TDEb1JcmF-4" vertex="1">
          <mxGeometry x="1" width="20" height="20" relative="1" as="geometry">
            <mxPoint x="-27" y="7" as="offset" />
          </mxGeometry>
        </mxCell>
        <mxCell id="sJjoMA-sm63TDEb1JcmF-6" value="ML Backend&lt;div&gt;(Flask Micro-Service)&lt;/div&gt;" style="html=1;dropTarget=0;whiteSpace=wrap;" parent="1" vertex="1">
          <mxGeometry x="670" y="460" width="180" height="90" as="geometry" />
        </mxCell>
        <mxCell id="sJjoMA-sm63TDEb1JcmF-7" value="" style="shape=module;jettyWidth=8;jettyHeight=4;" parent="sJjoMA-sm63TDEb1JcmF-6" vertex="1">
          <mxGeometry x="1" width="20" height="20" relative="1" as="geometry">
            <mxPoint x="-27" y="7" as="offset" />
          </mxGeometry>
        </mxCell>
        <mxCell id="sJjoMA-sm63TDEb1JcmF-10" value="" style="ellipse;whiteSpace=wrap;html=1;align=center;aspect=fixed;fillColor=none;strokeColor=none;resizable=0;perimeter=centerPerimeter;rotatable=0;allowArrows=0;points=[];outlineConnect=1;" parent="1" vertex="1">
          <mxGeometry x="570" y="480" width="10" height="10" as="geometry" />
        </mxCell>
        <mxCell id="sJjoMA-sm63TDEb1JcmF-13" value="" style="ellipse;whiteSpace=wrap;html=1;align=center;aspect=fixed;fillColor=none;strokeColor=none;resizable=0;perimeter=centerPerimeter;rotatable=0;allowArrows=0;points=[];outlineConnect=1;" parent="1" vertex="1">
          <mxGeometry x="505" y="460" width="10" height="10" as="geometry" />
        </mxCell>
        <mxCell id="sJjoMA-sm63TDEb1JcmF-16" value="" style="ellipse;whiteSpace=wrap;html=1;align=center;aspect=fixed;fillColor=none;strokeColor=none;resizable=0;perimeter=centerPerimeter;rotatable=0;allowArrows=0;points=[];outlineConnect=1;" parent="1" vertex="1">
          <mxGeometry x="505" y="460" width="10" height="10" as="geometry" />
        </mxCell>
        <mxCell id="sJjoMA-sm63TDEb1JcmF-17" value="" style="endArrow=none;dashed=1;html=1;rounded=0;entryX=0;entryY=0.5;entryDx=0;entryDy=0;exitX=1;exitY=0.75;exitDx=0;exitDy=0;" parent="1" source="sJjoMA-sm63TDEb1JcmF-2" target="sJjoMA-sm63TDEb1JcmF-6" edge="1">
          <mxGeometry width="50" height="50" relative="1" as="geometry">
            <mxPoint x="490" y="460" as="sourcePoint" />
            <mxPoint x="540" y="410" as="targetPoint" />
          </mxGeometry>
        </mxCell>
        <mxCell id="sJjoMA-sm63TDEb1JcmF-18" value="" style="endArrow=none;dashed=1;html=1;rounded=0;entryX=0;entryY=0.5;entryDx=0;entryDy=0;exitX=1;exitY=0.25;exitDx=0;exitDy=0;" parent="1" source="sJjoMA-sm63TDEb1JcmF-2" target="sJjoMA-sm63TDEb1JcmF-4" edge="1">
          <mxGeometry width="50" height="50" relative="1" as="geometry">
            <mxPoint x="490" y="460" as="sourcePoint" />
            <mxPoint x="540" y="410" as="targetPoint" />
          </mxGeometry>
        </mxCell>
        <mxCell id="sJjoMA-sm63TDEb1JcmF-20" value="" style="shape=image;verticalLabelPosition=bottom;labelBackgroundColor=default;verticalAlign=top;aspect=fixed;imageAspect=0;image=data:image/png,iVBORw0KGgoAAAANSUhEUgAABLAAAAJ2CAMAAAB4notuAAABDlBMVEUAAAAYkOAgkOAokOgomOggmOgYmOgYmPAYmPAYoPAgoPAgmPAgkPAgkPAgkOggkOggkPAgmPAgmOggmOggmOggmPAYmPAYmPAgmPAgkPAgkPAgmPAYmPAYmPAgmPAYkPAYkOgYkPAYkOgYmOggmOggmOggmPAgkPAgkPAgmPAYmPAgmPAgkPAgmPAgmPAgmPAgmPAgmPAgmPAgmPAgmPAgmPAgmPAgmPAgmPAgmPAgmPAgmPAgmPAcmPAgmOwgmOweluwgmPAgmPAgmOweluwglOwcmOweluwgmOwgmPAgmPAgmOweluwcmOwglOwglOwelOweluwgmOwgmPAQmOgYoOAoqP8wmP8gmPAelu1KJ0XzAAAAWHRSTlMACAgIEBgYGBAQEBAQGBggICAgKDAwMDg4ODAoKCAYEBgoMEBASEhIQEBIUFBYYGhweICIkJigqLC4wMjQ0NDY2Njg4ODg4Ojo6PDw8PDw+Pj4+PgICAgIEEa41QAAE95JREFUeAHs1AOunWEQANCpo2fbthm9RrUx+99It3Dv/yVTnbOIEwAAAAAAAAAAAAAAAAAAAAAAAAAAAAAAAAAAAAAAAAAAAAAAAAAAAAAAAAAAAAAAAAAAAAAAAAAAAAAAAAAAAAAAAAAAAAAAAAAAAAD/rNGdg6PeHKzPBcDvMnH+kP14dbEdAL/B6FX272YyAKptvckuPhwGQK2j7Oo0ACrtfs7OjgKgzsCb7O7zZACUucgWNwFQZfRzNtkJgCKn2eYiAIrcZ5tXAVDj8c9sNBYlAIaz1U6UAJjOVgdRAmA7Wx0GgLAAhAUIC0BYAMIChAUgrD8OICwAYQHCAhAWgLAAYQEIC0BYgLAAhAW0ERaAsACEBQgLQFgAwgKEBSAsoI2wAIQFICxAWADCAhAWICwAYQFthAUgLABhAcICEBbAVLY6iBIAw9lqJkoA/PiZjRaiBsBttnmIIgDH2eY8AIoMfM4m4wFQ5SxbXAVAmaWX2d2bhQCoM/4uO9sMgEp7Xcf6dBgAtSYfsov3OwFQ7enJm+zX54sXAfAbDBzf/sze/bw7GQqA32Zxeqc30yPfAwAAAAAAAAAAAAAAAAAA+Hs93jz+xd59d6fNNgkYH6fHLbY3ZElILzxhWUB0AXqL9DSD0wC3+f4f5K0+iXAAC903QnCu3/8pnnO4PKjWmxE1nOIdme9hqdpoRlR3CnKDo3It8l9Xq+QEwAZ73B7oQsbue5mt2B3rQgbNI5npzPF0MX5tVwBspp2WxuC+kOne9nRxXxtbs+oX6OKOKwJgE+X+rrGcFKw+hd07lGlqGk97SwBsnLcnGtO3vPysrHH99lJ+1tK4OhcCYMPsBBrbp5xc93SksXmncl2VF9UD+MFVA55cc7uvNhOTURNFAbBR3qmRkkyqqYmvj2RSR034AmCjdNVmE04HaqQpEwpqnlMAG2NnqGbeSlhRzQxkQkPNuAJgg5TVUM34nN6E9xIWqJnxlgDYHA011JYwTw05ErKtpjICYHO01VBPwvpqqC4hz9VUXgBwzP27QMIu1VDL+AzmhLLMAIBgqdVgfSRYAAgWAIJFsAAQLIIFgGABIFgEC4ApggWAYBEsAASLYAEgWAAIFsECQLAIFgCCBYBgESwAZggWAIJFsAAQLIIFgGABIFgECwDBIlgACFZSXgsAQwQrIbXPtTMBYIRgJSMzVA3KAsAEwUrEbV//rZeV+AAQrEQ09Ur7UOICQLCSUNTvPlW3JB4ABCsB+8caEuQlFgAEKwGuTmrtyOIAEKwEVPS63z/KogAQrAQcjPRn9VuyGAAEKwEdncY7kkUAIFgJKOl0J0W5GQCClaBXxzpLTWYDQLCS19TZ3FOZDQDBSlhW5/EOZDYABCtRF57O9XtOZgNAsJJU1Rt84nZogGClI1hHI73Jp4JcAUCwVsnVmw2LEg0AVw15EjZQQw0JeaymirJKH1UplkVAUw25EuarIUdC7qqpZ7JKnkbyLS8AoqiqoaaEddRQye7CdldWqKwRDQsSAYBnaigvYY6aGT2w+oW1Jyt02teoPmclAgCBGhmcSdihmunIhLKaqa3L8vopJwBu5qiRhkxyrR4k3wrUxOhAVudOXxcQ3BUANzoP1MCnHZn0fKQGunJNZX0XrJoupHcqAG6Ut3udU03jO3lm9Tox/46szsOBLqYtAG7mWPpCeKVt5xThlYe+xvXlKP0LVlhVANysZueShiu3XY1nVJYpjv6m8Rw/S98pwvnyAuBmxYHGMKzIdLWRxhA8lal2XI2ju7d2a+vxgQC42cPGUBfVeimzvHF1UYPqqczyi6eLCkqyUheBxtA7lwgA7JTaXv9So+l7bvmuzHPodPyBRnPZ77WKWzJPptb1xxrNOOjWn8qKlcyOCQJA+h+CkRcASFZOYwq2BQAS1dC4mgIASTodaGz/JwCQoJLG9+srAYDkuGqgIQCQmN2RGhjmBACSUlYjHQGApHTUTF4AIBlnYzXjXwgAJOIXNeUIACSioab6WwIAq3kbISsWkKu2u34QjddplXZlrmzd7QUReW6jcCHzbBWbHS+IqOfWHstc++VW5J/V77Yqh9ZHF919NRdcCLBJ8p4u6GvrUGY5d/q6oEHtjsyy0xjrgvzSnL64uqhu1vboIvt/taAsmwO439UYhlWZLhtoDP2iTFf5pDF4uRkxbWgc7W3Lo4uqrhb4sjGAt79rPO3bMkVpqPHUrH5iPxVlip2uxuMd2B5dNF21oSQbAnh+YvUq6qLGVpWfNTWu0Uf5yVZP4/r1ruXRRTNQG3qyGYAHf9P46nJddqjxFa2+Sfr4hc2Xhmn33PLoosioHRnZCEBTTWStnoXvb8ukl0M14Mo1JTXh2B5dBCW1oymbADj6qia6du/UrcmklhopyIQLX00MHloeXQQ1tWOwLYBwIXXG6mWOgwsJe61mXJlQVDOO5dEt+CwsrmwAArW5Ex2p2tyJKmpmvG1zX9Ou/dHdxFdLOgKsv7dqyJMwRw017O4XRbtn3B7YH90NxmrLSwHWXlENDezeqetKmGf1LrodNZWxP7r5DvQHbigEHDV1x+pK1LO7EtUl5ImaKtof3XwFtaYrwNqrqakXVq/LDiTsUg217H76y/ZHN19J7dmRZQIIlloN1sf1C1ZV7SnLEgEEi2A11J6WLBFAsAhWS+3pyxIBBItguWpRTpYHIFgEq6sWObI8AMEiWJ5a1JblAQgWwfLVokCWByBYBCtQm+4JsCYIFsEqytIABItg9dWmqgBrgmCxYbUl5NWbbL5UqdabzVa77XY67Xa72axXK6XCk31ZMYBgESxP/uUo79RbXX+sc4z9bqtazF3IagAEi7OE+q3h+mONbuy3nKe3xT6AYHEd1lJceo38rtgHECyudF+ObjUn9gEEi3sJlyOov5V5AILF0xrSxK/uyAwAwSJYdU2XYTsrUwEEi2A5mjq9kkwBECyCVdQU8svyE4BgEayMppL3Qa4BCBbB2tGUcl8IQLAI1qSBptSJIxMAgkWweppanR0BCBbBCmlqev2WlR8AgkWwKppiQ0e+AwgWwXqnqdY6lSsAwSJYd8aaat4LAQgWwbrS03Tz5QpAsAhWQ9OtKVcAgkWwippu7+UKQLAI1r6mWiAAwSJYa3IQqyEAwSJYoX8mzZ7JdwDBIljP1uUbIUCwCJYEml41AQgWwVqTCxsOBCBYBGs9vhO2Zc2AYB0uMViXVoP1Pm3BOpRIfE2rp5IooKKmtiSkrYZ6EtZXQ3UJyampvPXRrfV5wp4kCyiqoYHd4y2u3Te1OxLySk09sTy6aPZGmk5FSRbwXA317C5sdbG6sOWtLmzjbcuji8jVVPIkaYCvZqoStqeGshJWUjODW1Yf39mxPbqI8ixYgJ13C7+RCT2rFyK+GqmRtt0PfsXy6Bb8rcIRLODuic0kSNFqEqShRh6LzZwGp5ZHF1lFU6ggawZc2DD6H7mmqwb8C5n0cGDnooYrBTVRtj26yG71NXVasgLAWc/OWbgrL441tmHW6lnMP3asXjXuWh9ddI6mzfBQVgG4/6vVx00WhhpX2eoC+CknP+toXN5t66OLbnugKePIagAvPasPQyocayzDskxTGWosv2Zkilstjae7b390a7xieReyIsDtpsbQL8l0j7oag5eR6fKBxuDuy3TOiS5uVLc9ugWdB5omw4ysDpBxx7qYfu2OzFTs6YK8ssx07gS6mGEnKzPtNwa6mEHrhe3RLazMY2V+ALZL9VYnIrdZ/V+Zb6/SaEf+6xrOI5nvWbXhdiJqNco7Ml+h1or+19U+nFkeXSyepkdX5gCAp5oaJy9kHgBocU/OugCwc6zpUJf5AODJXzQVOjIXAGRcTYe/vZLZAOC81NGUOM7JTACQbfQ1LU4ey3QAcFFoBJoew4JMAwCPnfZA02SYl+sA4E6h6g40Zb4VBQBCzh6X6q5/qekzutqvAOCwUKo2raXKvpP3AizXg8Oj1MKjTOFDqeLUGu2u17/UdPstI8DyHFba/litAPxDAZam2FVrgO5DAZal4Kk9QHtLgCW53VJ7gKEjwLK88BWw57ggwLLkjhWwp3NfgGV58asC1gyrAizNmaeANV5GgOVpKmDLqCrAWrxaBei8EWCZugrYEZQFWKqCAlac1E4FWK62AhZ8bb6WJQN2R2oMGDUPZOmAopoCThp7kgCgrmYA39mVRAAdNQF0ipIUwNfYgJ5zT5ID9DUewKsdSaKAgS4OGHcqB5J2IFjAuFvPbwlAsJBul4FbfXcmQJqPYQFjv9OsZLcFIFhIocFgEARet92sOeWnewIQLKRPTdYECBbwQoC0ChQIc+Wf7d2FWiTnEgbgWhc254E1YzceEs4ERpDRI0wMZpVBsnX/NxJ3JYv03/O+F1FP/9VVXxUCBQv+HWVAwYKtKAQKFrSiDChYsHctyoCCBZsBhcTLwMOAChsl/GgYUGXDhB+tBpQRkQyT/YAq6yX8YC2g0jYTfnAzKg02sjRYI8RdQvgoqg06Cd8ZRcVBKwuBmQZoJnxr5zAqDlYSvtWOqoNGwjd256LqYDnhGxtRefAw4RvvROXBQhYCQ6NwkPC15SgATBJyFCByFEOjcIwGCTsHUQLoJbQD5MuUgadzAeIaykAnZhO2n/GBBZYJEeUOD3LGMb0ShYCbOeNYj1LAjZxtTOcD7OYgVwaO2ygLgGOEYNSdzSgEGHVnMQoC7ZxhdKMQ4G4Od6IkcD8LgWRkmMvZxbsBBrHQwYITMcxC4LYXdLPSMIMFIvx4MR+lgdUsBGIa4F4WAjlYcPFVFgJJ7jDOGcT2jSgQ9HMG0YoSwXrOHsaHUQbwm5CVKANYf2YYZYILr3LWsByFgq2sJMTKgG1CXtyKEwZSknGcHpZypvDFXJQBhI6yGmUAyzmMohDgmCrvxykAXXcEucNHOTN48kacChCJhZQGGGUh0HGHjZwR3I9TAhJmcNkLFnMm8PxfUT7YyVlAM8oAAhsYRB1AK+uP3cWoA7ib9Uc76gEmWXeMvowygP1nHkZNQDMLgZhRuJX1xng/ThsI8cNhL9jMOmM9agRWssbYOhdFAJcomN6LWoFh1hadKAMIdmd0GPUC72ZN8eLdAIMNiHEHOckcp37UDzSyjti+EvUDB5OsIRoBYkcx4g6G3TlOo3NRS3BxL5GKDFL8OBurUQZwT5WNqC14a5qnDw0s8CbkyTtRY/Bx1ggfR53B+UmeMkxggaBkhodRb7CcNcH2fBQBZMywez9qDzpZCEyMwnz+GhruYBQLmX0gxo9P56IIoO3O0ztRLaDtjoxRuDLNotGMygHT7vhBCHeyYPRipsAgi8XwQhQBTDbw+dsxY2ArC4HIPmhlkZi+FzMHLuxkgXjxYZQBDI+yErMIbjzJE4KBUfCJRTtmFMw9zbLQiZkFa1kI3HiGy9MsCJtRBvCJRTdmGrz1PAuBegXtLATqFZwbZxHoBtDMQqhXwJdbif+DIBcL9QqOWT8pZF4UWNxNCjk4AaxnIew7A1e3s7LYXQ2giNEGni3FLwDDrCaePIhfAh5Os4rYfhhAEakN/H8hgN/YH2flMJgL4HcsZ9WweRjA79pMChm/AuY+zQrhWSOAIh6FfHEngCI2dBgtBPBnDkZZDXT3A/hz96aJa6ngIgV/25OlAP6GXp41RvMB/B1XP8mzxea5AP6e+7t5hpiuBlBEG4v/3Q3gCLp5VuhdDeAoLozyTDBtBXBEC9t5Bti6HcCRPXiRp47N/QBKuEnB9lIARQQm038jgBLS/Ji2458DDvt5Whg9DOB1XB/lqWB37TCA13NlnKeA4WIAr23h86SQ7hXw+JPkZA0exfEAbm0nJ2i3HccGWNxOTkxvIY4R8M4nyckYr8bxAh7/LzkBL9YvxnEDLv83jx39dwI4AVeHSSGvQeB6P48R085BACdmI48N3fkATlIrjwf9OwGcsKUnyesbLgdw8m6Pk9c0asSpAG70ktcxbgZQwoVVdtoHcYqAD5/kP8LzzsU4XcDlfnJ0O525OH1Aczc5mnHrXJwJYHGUHMG4dT7OCnCwNk3+ptFKnCng3WFSSrkCWtPkr/Q+iioA5vvJn5ms34yqAJZHyR/Zal2MKgGaO8nv6TeiaoCLnWnyK5ONxagiYH5zmvzMqHk9qgp4vL6bfGeysRyVBiysTzOTQfNCAAV8ZU1yxo07j6MMwPXWOGfXtNuIkgAfD2b2KfhWlAZ4uDmZwWp1KYoEnFvp5wwZtK5EwYBHazuzUq3eiNIBh43uJOttWp9vK+Cgsfks62qnu/pW1AlwY7W/l/UzbN+JGgL2Gxs7WSOTbvNK1Bdwf22UdbA36NyP2gPmm4U34Sf99oPDAGbFzVKL1qTfWT4MYMacX+70J1mScbd1J4CZtdjc3MoC7PQ6DTs3QLy5sjaYVLpWLV2OHwHcbKz1d7Ja9kbdduPNAPgdC0vtzeEkz97eVrfTeCcA/sL8GZatV+P+RuuDmwFwBG/dWWlvDsav8nRMRr31VuPuufinAA4eLa92NnqjyUm9/Qbd9Vbj9tU4NgDnHi03mp317mC08ypfz2Rr2Ntca60uL94IgJN19fG77zdWW+21jW63PxiNxuPJXv6uV5PJeDwaDfrdzfVOq7mydH/xUpw5gAtXvzZ382sLV791PY4BAAAAAAAAAAAAAAAAAAAAAAAAAAAAAAAAAAAAAAAAAAAAAAAAAAAAAAAAAAAAAAAAAAAAAAAAAAAAAAAAAAAAAAAAAAAAAAAAAAAAAAAAAAAAAAAAAAAAAAAAAAAAAAAAAAAAAAAAAAAAAHwFakb9XKyQTS8AAAAASUVORK5CYII=;" parent="1" vertex="1">
          <mxGeometry x="660" y="280" width="59.95" height="31.47" as="geometry" />
        </mxCell>
        <mxCell id="sJjoMA-sm63TDEb1JcmF-21" value="" style="shape=image;verticalLabelPosition=bottom;labelBackgroundColor=default;verticalAlign=top;aspect=fixed;imageAspect=0;image=data:image/png,iVBORw0KGgoAAAANSUhEUgAABLAAAAJ2CAMAAAB4notuAAABDlBMVEUAAAAYkOAgkOAokOgomOggmOgYmOgYmPAYmPAYoPAgoPAgmPAgkPAgkPAgkOggkOggkPAgmPAgmOggmOggmOggmPAYmPAYmPAgmPAgkPAgkPAgmPAYmPAYmPAgmPAYkPAYkOgYkPAYkOgYmOggmOggmOggmPAgkPAgkPAgmPAYmPAgmPAgkPAgmPAgmPAgmPAgmPAgmPAgmPAgmPAgmPAgmPAgmPAgmPAgmPAgmPAgmPAgmPAgmPAcmPAgmOwgmOweluwgmPAgmPAgmOweluwglOwcmOweluwgmOwgmPAgmPAgmOweluwcmOwglOwglOwelOweluwgmOwgmPAQmOgYoOAoqP8wmP8gmPAelu1KJ0XzAAAAWHRSTlMACAgIEBgYGBAQEBAQGBggICAgKDAwMDg4ODAoKCAYEBgoMEBASEhIQEBIUFBYYGhweICIkJigqLC4wMjQ0NDY2Njg4ODg4Ojo6PDw8PDw+Pj4+PgICAgIEEa41QAAE95JREFUeAHs1AOunWEQANCpo2fbthm9RrUx+99It3Dv/yVTnbOIEwAAAAAAAAAAAAAAAAAAAAAAAAAAAAAAAAAAAAAAAAAAAAAAAAAAAAAAAAAAAAAAAAAAAAAAAAAAAAAAAAAAAAAAAAAAAAAAAAAAAAD/rNGdg6PeHKzPBcDvMnH+kP14dbEdAL/B6FX272YyAKptvckuPhwGQK2j7Oo0ACrtfs7OjgKgzsCb7O7zZACUucgWNwFQZfRzNtkJgCKn2eYiAIrcZ5tXAVDj8c9sNBYlAIaz1U6UAJjOVgdRAmA7Wx0GgLAAhAUIC0BYAMIChAUgrD8OICwAYQHCAhAWgLAAYQEIC0BYgLAAhAW0ERaAsACEBQgLQFgAwgKEBSAsoI2wAIQFICxAWADCAhAWICwAYQFthAUgLABhAcICEBbAVLY6iBIAw9lqJkoA/PiZjRaiBsBttnmIIgDH2eY8AIoMfM4m4wFQ5SxbXAVAmaWX2d2bhQCoM/4uO9sMgEp7Xcf6dBgAtSYfsov3OwFQ7enJm+zX54sXAfAbDBzf/sze/bw7GQqA32Zxeqc30yPfAwAAAAAAAAAAAAAAAAAA+Hs93jz+xd59d6fNNgkYH6fHLbY3ZElILzxhWUB0AXqL9DSD0wC3+f4f5K0+iXAAC903QnCu3/8pnnO4PKjWmxE1nOIdme9hqdpoRlR3CnKDo3It8l9Xq+QEwAZ73B7oQsbue5mt2B3rQgbNI5npzPF0MX5tVwBspp2WxuC+kOne9nRxXxtbs+oX6OKOKwJgE+X+rrGcFKw+hd07lGlqGk97SwBsnLcnGtO3vPysrHH99lJ+1tK4OhcCYMPsBBrbp5xc93SksXmncl2VF9UD+MFVA55cc7uvNhOTURNFAbBR3qmRkkyqqYmvj2RSR034AmCjdNVmE04HaqQpEwpqnlMAG2NnqGbeSlhRzQxkQkPNuAJgg5TVUM34nN6E9xIWqJnxlgDYHA011JYwTw05ErKtpjICYHO01VBPwvpqqC4hz9VUXgBwzP27QMIu1VDL+AzmhLLMAIBgqdVgfSRYAAgWAIJFsAAQLIIFgGABIFgEC4ApggWAYBEsAASLYAEgWAAIFsECQLAIFgCCBYBgESwAZggWAIJFsAAQLIIFgGABIFgECwDBIlgACFZSXgsAQwQrIbXPtTMBYIRgJSMzVA3KAsAEwUrEbV//rZeV+AAQrEQ09Ur7UOICQLCSUNTvPlW3JB4ABCsB+8caEuQlFgAEKwGuTmrtyOIAEKwEVPS63z/KogAQrAQcjPRn9VuyGAAEKwEdncY7kkUAIFgJKOl0J0W5GQCClaBXxzpLTWYDQLCS19TZ3FOZDQDBSlhW5/EOZDYABCtRF57O9XtOZgNAsJJU1Rt84nZogGClI1hHI73Jp4JcAUCwVsnVmw2LEg0AVw15EjZQQw0JeaymirJKH1UplkVAUw25EuarIUdC7qqpZ7JKnkbyLS8AoqiqoaaEddRQye7CdldWqKwRDQsSAYBnaigvYY6aGT2w+oW1Jyt02teoPmclAgCBGhmcSdihmunIhLKaqa3L8vopJwBu5qiRhkxyrR4k3wrUxOhAVudOXxcQ3BUANzoP1MCnHZn0fKQGunJNZX0XrJoupHcqAG6Ut3udU03jO3lm9Tox/46szsOBLqYtAG7mWPpCeKVt5xThlYe+xvXlKP0LVlhVANysZueShiu3XY1nVJYpjv6m8Rw/S98pwvnyAuBmxYHGMKzIdLWRxhA8lal2XI2ju7d2a+vxgQC42cPGUBfVeimzvHF1UYPqqczyi6eLCkqyUheBxtA7lwgA7JTaXv9So+l7bvmuzHPodPyBRnPZ77WKWzJPptb1xxrNOOjWn8qKlcyOCQJA+h+CkRcASFZOYwq2BQAS1dC4mgIASTodaGz/JwCQoJLG9+srAYDkuGqgIQCQmN2RGhjmBACSUlYjHQGApHTUTF4AIBlnYzXjXwgAJOIXNeUIACSioab6WwIAq3kbISsWkKu2u34QjddplXZlrmzd7QUReW6jcCHzbBWbHS+IqOfWHstc++VW5J/V77Yqh9ZHF919NRdcCLBJ8p4u6GvrUGY5d/q6oEHtjsyy0xjrgvzSnL64uqhu1vboIvt/taAsmwO439UYhlWZLhtoDP2iTFf5pDF4uRkxbWgc7W3Lo4uqrhb4sjGAt79rPO3bMkVpqPHUrH5iPxVlip2uxuMd2B5dNF21oSQbAnh+YvUq6qLGVpWfNTWu0Uf5yVZP4/r1ruXRRTNQG3qyGYAHf9P46nJddqjxFa2+Sfr4hc2Xhmn33PLoosioHRnZCEBTTWStnoXvb8ukl0M14Mo1JTXh2B5dBCW1oymbADj6qia6du/UrcmklhopyIQLX00MHloeXQQ1tWOwLYBwIXXG6mWOgwsJe61mXJlQVDOO5dEt+CwsrmwAArW5Ex2p2tyJKmpmvG1zX9Ou/dHdxFdLOgKsv7dqyJMwRw017O4XRbtn3B7YH90NxmrLSwHWXlENDezeqetKmGf1LrodNZWxP7r5DvQHbigEHDV1x+pK1LO7EtUl5ImaKtof3XwFtaYrwNqrqakXVq/LDiTsUg217H76y/ZHN19J7dmRZQIIlloN1sf1C1ZV7SnLEgEEi2A11J6WLBFAsAhWS+3pyxIBBItguWpRTpYHIFgEq6sWObI8AMEiWJ5a1JblAQgWwfLVokCWByBYBCtQm+4JsCYIFsEqytIABItg9dWmqgBrgmCxYbUl5NWbbL5UqdabzVa77XY67Xa72axXK6XCk31ZMYBgESxP/uUo79RbXX+sc4z9bqtazF3IagAEi7OE+q3h+mONbuy3nKe3xT6AYHEd1lJceo38rtgHECyudF+ObjUn9gEEi3sJlyOov5V5AILF0xrSxK/uyAwAwSJYdU2XYTsrUwEEi2A5mjq9kkwBECyCVdQU8svyE4BgEayMppL3Qa4BCBbB2tGUcl8IQLAI1qSBptSJIxMAgkWweppanR0BCBbBCmlqev2WlR8AgkWwKppiQ0e+AwgWwXqnqdY6lSsAwSJYd8aaat4LAQgWwbrS03Tz5QpAsAhWQ9OtKVcAgkWwippu7+UKQLAI1r6mWiAAwSJYa3IQqyEAwSJYoX8mzZ7JdwDBIljP1uUbIUCwCJYEml41AQgWwVqTCxsOBCBYBGs9vhO2Zc2AYB0uMViXVoP1Pm3BOpRIfE2rp5IooKKmtiSkrYZ6EtZXQ3UJyampvPXRrfV5wp4kCyiqoYHd4y2u3Te1OxLySk09sTy6aPZGmk5FSRbwXA317C5sdbG6sOWtLmzjbcuji8jVVPIkaYCvZqoStqeGshJWUjODW1Yf39mxPbqI8ixYgJ13C7+RCT2rFyK+GqmRtt0PfsXy6Bb8rcIRLODuic0kSNFqEqShRh6LzZwGp5ZHF1lFU6ggawZc2DD6H7mmqwb8C5n0cGDnooYrBTVRtj26yG71NXVasgLAWc/OWbgrL441tmHW6lnMP3asXjXuWh9ddI6mzfBQVgG4/6vVx00WhhpX2eoC+CknP+toXN5t66OLbnugKePIagAvPasPQyocayzDskxTGWosv2Zkilstjae7b390a7xieReyIsDtpsbQL8l0j7oag5eR6fKBxuDuy3TOiS5uVLc9ugWdB5omw4ysDpBxx7qYfu2OzFTs6YK8ssx07gS6mGEnKzPtNwa6mEHrhe3RLazMY2V+ALZL9VYnIrdZ/V+Zb6/SaEf+6xrOI5nvWbXhdiJqNco7Ml+h1or+19U+nFkeXSyepkdX5gCAp5oaJy9kHgBocU/OugCwc6zpUJf5AODJXzQVOjIXAGRcTYe/vZLZAOC81NGUOM7JTACQbfQ1LU4ey3QAcFFoBJoew4JMAwCPnfZA02SYl+sA4E6h6g40Zb4VBQBCzh6X6q5/qekzutqvAOCwUKo2raXKvpP3AizXg8Oj1MKjTOFDqeLUGu2u17/UdPstI8DyHFba/litAPxDAZam2FVrgO5DAZal4Kk9QHtLgCW53VJ7gKEjwLK88BWw57ggwLLkjhWwp3NfgGV58asC1gyrAizNmaeANV5GgOVpKmDLqCrAWrxaBei8EWCZugrYEZQFWKqCAlac1E4FWK62AhZ8bb6WJQN2R2oMGDUPZOmAopoCThp7kgCgrmYA39mVRAAdNQF0ipIUwNfYgJ5zT5ID9DUewKsdSaKAgS4OGHcqB5J2IFjAuFvPbwlAsJBul4FbfXcmQJqPYQFjv9OsZLcFIFhIocFgEARet92sOeWnewIQLKRPTdYECBbwQoC0ChQIc+Wf7d2FWiTnEgbgWhc254E1YzceEs4ERpDRI0wMZpVBsnX/NxJ3JYv03/O+F1FP/9VVXxUCBQv+HWVAwYKtKAQKFrSiDChYsHctyoCCBZsBhcTLwMOAChsl/GgYUGXDhB+tBpQRkQyT/YAq6yX8YC2g0jYTfnAzKg02sjRYI8RdQvgoqg06Cd8ZRcVBKwuBmQZoJnxr5zAqDlYSvtWOqoNGwjd256LqYDnhGxtRefAw4RvvROXBQhYCQ6NwkPC15SgATBJyFCByFEOjcIwGCTsHUQLoJbQD5MuUgadzAeIaykAnZhO2n/GBBZYJEeUOD3LGMb0ShYCbOeNYj1LAjZxtTOcD7OYgVwaO2ygLgGOEYNSdzSgEGHVnMQoC7ZxhdKMQ4G4Od6IkcD8LgWRkmMvZxbsBBrHQwYITMcxC4LYXdLPSMIMFIvx4MR+lgdUsBGIa4F4WAjlYcPFVFgJJ7jDOGcT2jSgQ9HMG0YoSwXrOHsaHUQbwm5CVKANYf2YYZYILr3LWsByFgq2sJMTKgG1CXtyKEwZSknGcHpZypvDFXJQBhI6yGmUAyzmMohDgmCrvxykAXXcEucNHOTN48kacChCJhZQGGGUh0HGHjZwR3I9TAhJmcNkLFnMm8PxfUT7YyVlAM8oAAhsYRB1AK+uP3cWoA7ib9Uc76gEmWXeMvowygP1nHkZNQDMLgZhRuJX1xng/ThsI8cNhL9jMOmM9agRWssbYOhdFAJcomN6LWoFh1hadKAMIdmd0GPUC72ZN8eLdAIMNiHEHOckcp37UDzSyjti+EvUDB5OsIRoBYkcx4g6G3TlOo3NRS3BxL5GKDFL8OBurUQZwT5WNqC14a5qnDw0s8CbkyTtRY/Bx1ggfR53B+UmeMkxggaBkhodRb7CcNcH2fBQBZMywez9qDzpZCEyMwnz+GhruYBQLmX0gxo9P56IIoO3O0ztRLaDtjoxRuDLNotGMygHT7vhBCHeyYPRipsAgi8XwQhQBTDbw+dsxY2ArC4HIPmhlkZi+FzMHLuxkgXjxYZQBDI+yErMIbjzJE4KBUfCJRTtmFMw9zbLQiZkFa1kI3HiGy9MsCJtRBvCJRTdmGrz1PAuBegXtLATqFZwbZxHoBtDMQqhXwJdbif+DIBcL9QqOWT8pZF4UWNxNCjk4AaxnIew7A1e3s7LYXQ2giNEGni3FLwDDrCaePIhfAh5Os4rYfhhAEakN/H8hgN/YH2flMJgL4HcsZ9WweRjA79pMChm/AuY+zQrhWSOAIh6FfHEngCI2dBgtBPBnDkZZDXT3A/hz96aJa6ngIgV/25OlAP6GXp41RvMB/B1XP8mzxea5AP6e+7t5hpiuBlBEG4v/3Q3gCLp5VuhdDeAoLozyTDBtBXBEC9t5Bti6HcCRPXiRp47N/QBKuEnB9lIARQQm038jgBLS/Ji2458DDvt5Whg9DOB1XB/lqWB37TCA13NlnKeA4WIAr23h86SQ7hXw+JPkZA0exfEAbm0nJ2i3HccGWNxOTkxvIY4R8M4nyckYr8bxAh7/LzkBL9YvxnEDLv83jx39dwI4AVeHSSGvQeB6P48R085BACdmI48N3fkATlIrjwf9OwGcsKUnyesbLgdw8m6Pk9c0asSpAG70ktcxbgZQwoVVdtoHcYqAD5/kP8LzzsU4XcDlfnJ0O525OH1Aczc5mnHrXJwJYHGUHMG4dT7OCnCwNk3+ptFKnCng3WFSSrkCWtPkr/Q+iioA5vvJn5ms34yqAJZHyR/Zal2MKgGaO8nv6TeiaoCLnWnyK5ONxagiYH5zmvzMqHk9qgp4vL6bfGeysRyVBiysTzOTQfNCAAV8ZU1yxo07j6MMwPXWOGfXtNuIkgAfD2b2KfhWlAZ4uDmZwWp1KYoEnFvp5wwZtK5EwYBHazuzUq3eiNIBh43uJOttWp9vK+Cgsfks62qnu/pW1AlwY7W/l/UzbN+JGgL2Gxs7WSOTbvNK1Bdwf22UdbA36NyP2gPmm4U34Sf99oPDAGbFzVKL1qTfWT4MYMacX+70J1mScbd1J4CZtdjc3MoC7PQ6DTs3QLy5sjaYVLpWLV2OHwHcbKz1d7Ja9kbdduPNAPgdC0vtzeEkz97eVrfTeCcA/sL8GZatV+P+RuuDmwFwBG/dWWlvDsav8nRMRr31VuPuufinAA4eLa92NnqjyUm9/Qbd9Vbj9tU4NgDnHi03mp317mC08ypfz2Rr2Ntca60uL94IgJN19fG77zdWW+21jW63PxiNxuPJXv6uV5PJeDwaDfrdzfVOq7mydH/xUpw5gAtXvzZ382sLV791PY4BAAAAAAAAAAAAAAAAAAAAAAAAAAAAAAAAAAAAAAAAAAAAAAAAAAAAAAAAAAAAAAAAAAAAAAAAAAAAAAAAAAAAAAAAAAAAAAAAAAAAAAAAAAAAAAAAAAAAAAAAAAAAAAAAAAAAAAAAAAAAAHwFakb9XKyQTS8AAAAASUVORK5CYII=;" parent="1" vertex="1">
          <mxGeometry x="660" y="460" width="59.95" height="31.47" as="geometry" />
        </mxCell>
        <mxCell id="hf9R9DtUYx86VgvSH4YM-1" value="" style="shape=image;verticalLabelPosition=bottom;labelBackgroundColor=default;verticalAlign=top;aspect=fixed;imageAspect=0;image=data:image/png,iVBORw0KGgoAAAANSUhEUgAAAcwAAAHMCAYAAABY25iGAABVuUlEQVR4nOz9TYxbd3rviX+fQ1ISkJaqgvsHbkWsG7HTzj++wAxUBmbh2BmImriq2CuzFxc3gxtb1GKQLAZw8V6VxjvTq3FcQkitJlmZZacx6ZWpletFgViTtuOsumowQNxId8xCF90aYDApyu6LkkieZ3AOT8llqV74cs75vZznAxhOd1rkI/Lw9/0972kIgqAVl15YzF16oZBnIA8XORByAK4M+cd3wNiHgxYBLdfFNjFa7c3ydsRmC4L1kGoDBEEAcvnqdPcCinBRAuFaJG/C2AJhmxnNc0/QbDXL+5G8jyBYigimICjEE8reBSwxYwnAVMxvvwOg3ic0Hq6VWzG/tyAYhwimICjC9yrPowngqmpbDsUz8xh18TwF4XhEMAVBEdmFajOy8Ov4dEBo9IGKeJ2C8F1EMAVBAYF3+a+q7TgVwqoIpyB8i6PaAEEQNIVxI8XYni1UK6pNEQQdEA9TEBSRXay2RmgXUQtjK/MERclvCklGPExBUAQRSqptGBrCte55bGfnq3OqTREEVYhgCoIi9tbKTRBuqrZjBK7AQT2Xr06rNkQQVCCCKQgKaa+V60S4DmBXtS1DcrV3we8ZFYTEIYIpCIrxPM3MY8wR4V3VtgwDu8irtkEQVCCCKQga0GqW9/fWypU+4fsA1gEcqLZJEITvIoIpCBrxcK3c+s3P14pO3w/T7qi25zjI8acTCULikLYSQdCYmUI1l2IUCcgz8Lpqe0BYba+VzanuFYQQEcEUBIOYLVTz8MTTRT7msXq7IFTaa+V6jO8pCFohgikIBpOdr84xIec4mAtEdDrEYe47AJrMaH61UW6E9JqCYCwimIJgIcHaMH/IALNfgTts76Sfn/R7RAVB+A4imIIx5JYeTPfSvTnXoWkHfCgGR1sc5p7ZKdkBsH34HwjY9xcou9gnYLuX7rUevvdDGSwuCMJQiGAKWpJd3pgbCKAzh4E4PiuGYbIF0DYTmueepJqt2nWZlyoIwnOIYApa4AskU57IrwbNRyiOZ8O0A0ITcOvtlYVtZXYIgqAVIpiCMi7fvl8k1y2CKK/x1o5dItTTT9I18TwFIdmIYAqxkl3eKBGoqEVP4agwr/bT/YrkPQUhmYhgCpEze2szz+ASiIpKQ63h0CFCbe/9eVmqLAgJQwRTiITc0oPpbrpXAvmbLXQNt44P006ml8pLmDY8jrbCHEf6ANuywFpQiQimEArf+6P/NE2uk//eH/3pNcelPIheBHBBtV0RcwDwX3f+YbXyzU9/LAf5CZz77R/8/87/mxf+CIzc914oXCHGDBFmAMyAcQGE3Bgv+xCMAxAeBoPqWy6w/80v1v5v7/9HhJb33zk9PNxvrcsgeyEURDCFifA9yUy/AvBbqm1RBtNO+85rJ3pGSSU7X51DCktg/EfFl6cdIjS4j0Z7syxVz8LYiGAKY5O9tbkEQsWCvOTEEOFdyWsOmC1U8+yiEvOs22HpwBNPFw0Z9yeMigimMDKDnkmnDuKwZpbaQCfTTeeSnNP0c5DnUTeoAtoXT/RRE89TGAYRTGEkZm9vVpjxjmo79IRvtlcWErnN4/JCtUiEusHRhl0Atcxj1KWwSDgJEUxhKAa5yl4D0DLMpgUE3NtbmS+qtiNusovVGgBbcti+19kHKg/XytJvK3wHEUzhTAZzXalhZXtIuHTaK/PDbgWxgmyhWgfjhmo7IoGxRQ4qsrlFOMRRbYCgN7O3NvMANUUsh8LUcORY+J6lrWIJ3524xowH2YVqM1jcLSQcEUzhRLLLGyUmPEiaEAhnc3mhWrQoDHs6R4Tz0guL4/SMCpYggikciyeWAH2g2g5BP3L56jQRaqrtiB3CtYs/KHw8U6iKaCYUEUzhOYKcpYilcCy9C5aOOxyOuRTjy9lCteJdHFQbI8SLCKbwHWbe/iQX5CyF0emoNiAOmH3BTDTMeKd7HttBaFpICCKYwndI9TINyVmOjfXN74FAyPMx4AoRPp5drDbE20wGIpjCU7LL92syvWcCmK3v2yOCVIs+AwOvd8+jJd6m/YhgCj6D9pEED1APAXLIesEEn7x+K+FMibdpPyKYgg+Dklf1KIwOQcTgFAJvc9vf1CJYhwimMGghkVCsMBzynJzNFTj4WXaxmvjiKNsQwRQ8t0HWUgnDkohK4JCoZgvVuoRo7UEEM+EMBhQktqcuXJKQ32P7K4FDhXGjex5NEU07EMFMOuxI2CgkGJLfE47lavc8WpLXNB8RzARz6ZU3cpK7DBXrD0RyIEMtxmMKDpoimmYjgplgGNJTFzJTuaUHVnuZrish2QnwRVP6Nc0lrdoAE8nlq9NPziHvOJgDY475mVAcYZsZza82yg1lRg7BpVfelGXQIdNL9zwPwlov7NwTNLvnVVthNH6/ZrZQvdleK9dVGyOMhiyQHgE/nOKgAuD1If/ILhFKui6gzS5vfunpv2o7bIII7+69P2911fHsYrXBw/8GhBMgwnVdzwbheCQkewaeN5ktVEvZxeo2HPxsBLH0uOLv0StUSxGaOBaXb98viliGD7tkfbiNCVpHTkyBGQ3JaZqFCOYJeEI5W6hWuufRAuODiRq2GTXdysqJWSb7RAHx1cHGF3vJHPiCKf2YkyOFQIYhgvkMR4WSGe+EtJlhqnse2niZs7c3K9J7GR2pXtpqL7PVLO8ncoF0NHiiKcMNDEEE8wgRCOW3MLQ4RD3vR/YZRg1pczmKivSBL5jiZYbD1d55SAGQAYhgDoQyn12sRiOUmpHqp+u2/x2VQ3x1sP3FXsTLDBcGXpfZs/qTaMH0w6+L1QYzHiQhRBkU+kgrSQww2Hovc2+tXAGwq9oOi6hKPlNvEiuYlxeqRT/8mpDy+NzSg2lilrBPXBDdsL34B4PWCOsvBrHiSGhWZxInmH6byGK1RoSP4wxNEmE/rvc6jl6mJ6HYmEn1Ulb3Y2LgZTYB3FVth0VcnS1UrX9uTCVRgpmdr851z/tTWN6K+71Z4fSX7PJGKSmetFYQ3cgub1gfYss89od57Ki2wxaYsTRTqFofnTCRxAimPzxgMDhazbBxV41gDsKCJMUZyrD/s281y/t98qvApWo2HKZSgHiZGpIIwcwuVmvB8AFVIcnd9mZZydDqVC/TkFCsUq4FxVZW83Ct3CLSo3XKChg3xMvUD6sF87AKVkUI9ihEahL52eX7NVnfpR5irtu+xQSH+UzCTdV22EJK+qW1w1rB9MSyex5NHXJ3PcQvmAOvhpVeFISnTAVFV9bjb+AQ0QwLqUDWDCsFMyjuaSnLVx6FsPpwrdyK8y1n3v4kJy0keuE3pi9vJOIADNZWSeXs5EzNFqpWD8AwDesEM1jB1dQlb9ePOXmfW3owLXlLXaFaEqpmPdrr5SUAZdV2WIAIpkZYJZi6iaUK77Kb7kreUl+mwE4i8pkYiGZNwrOTwZrMoBYGWCOY2omlAu/S30JCdCPO9xRGhPiqf6lJCEF49ieq7TCYq1Itqw+k2oAw0FEs/c37g1mbsTDIj9EHcb3fxDDtgHgfzC1yyPfC2cU+ASO13zBxjohyzLgA4OXgv57T6Vk4Dv/5eH8+Eb12F39vcebS7xe+0P070RbCzeDiISgmrdqASdFRLAHsBuuPYmGQF9OyQX4XQIsITfaEkamV7qW3W7XrsYwJ9D4XYpqGgzy7nANRTpfh88x4J7u80WqvLFh/EH79L+sP/83vFnLBlC1JF4xOHgoq7YXnMdrD1FQsPe/hejBjM3ICsdThM9j1vUPCNlw04xTGUQkKb+bAyIMor3JTDTGu792ZVzY2MW78ISKK+6INpNNeLyci7607xgpm0Ge5reFarrtBhWDk5JYeTHfT/aaiIp9dMDdBaPZT/ebD934Ya3FTmMy8/Uku1U/lAwEtxnz56ACcb68sKJkEpYLLC9ViMMxD9SXPHFy8pGpamPAtRgrm4VACDcM7u5nHmGs1y5F7VirEkoB7zGj2072GyQJ5FgMP1CkBXIzpQpY40fR/w+fQAOkRIjeA2C7iwskYKZj+0mcNJvg8R4y3wNnlzTg+gw6YG+w4jXNPUk1dQ6xREqN4Jk40MQjReiJQEW/zTHbb62WpllWMcYI5W6hWmPGOajuOoez3ncVA9tZGPcr2Ec+TdInqX73/WiOq9zCRy7fvF8l1ixF+9okUzZlCNZdm1LS8BOuEhGWVY5RgzhaqeWY8UG3HcxBW22vlWMaeRSaWfpuHW8t0M40kepKjkFt6MN0711viwXDssD2jzqNPP3zx688+ehjy62pP8Puua1iXoAuRh2UDh6T0zHfQIaDJhEbmAI04Uk66YoxgBnnLloahm53MY+TjeIgiEMsDMP8EhFrSvJqwCPpfK+Ee8vyTR59+9N7Xn32UyO8kOLSjuIyYTqRh2exidXuouhDCKgH1uDoBdMIYwcwuVJsaFgh0+oS5OMbfRSCWu07fKf3qL/84cQ99FIQvnNxoryz8KJzXMg/vgty7gCVN0y/qiCgs6y/YH+wMHhoC7vUIS3GP/1SJ9oL5vRcWp6d+UKhDv/zGTx7989rS1/+yHmno7OIrbxQvvfLGOyCadGh3C4zmo88+3AHQTKr3EjUXX3nD+57yl1598/Vg8tCFCV7u80effvgXKddZ2/989SBEM43B+/0TkP/eDwrXnMHnOTfhZ2o6//ibn6/l91vroT4P2YXqNmjsroPmo1+s/QSMRtTnoWq0F0wtPcuYRlWF5FVuEaOSpOZ4XRi0/nRrE3+HTDv9dLdocyvPsBzxPJ/NsyWHCM6f7GKVQ3iZDghLNo/x01owxwkTxECjvV6OPFQWgljuMtGSVLqqZ/bWZp5p4mKWDjGKcvH5Fv98cFHS7kIdPTvt9XKoa+JCdkys7RnVVjB1neTz6JdrL339i/VIw5kTimUH4KUkzCg1jdnbm5O3RDHK7TvzOs4NVsZMoZpLDYqESkkpFAp7/GbYve0E3Es/Rsm2ilpt13v1Lvg/AK3EEoSbOoslEd7NdNM5EUs9GWwn4Zf8Fp5xIVSzy5vNpOzUHIaHa+WW59G018vTzPgRCKuDi6O98OByEObrhRq58MS3ex5Nz/EJ83VVo6WHqWULScR5ywnzXVv9VK8kOS4z8L/rTN8Tz0mGkHeYqCQh95PxZ9Y6KGKwhFmfsyQk+oTvh1WhGnjpX4bxWs8QW9tdHGgpmNrlLmMRy7HmwsqhaTD+5CDmiYaQ+6GvbrokwyZOJxiKUAxWZek2g3o8Qh6YMnQf5uhYI5p6CuZitaVJOLbDjNJXG+XIBGlssWRezfQyS3JQmo0/q5ad+oRD9HeJUZKCoOHI5avTT84hT4Q8GHMGFw11Mo+RC0uIInZUrBBN7QQzWP3zsWo7/ByIi3yUsxuDXZaNES8Hcjhahj9qL9OrT1p0Id7meMwUqjnHxZyJAkqEd/fWypWwXi+7WN2PKnztPZ976+ViFK8dF9oJZrZQrYMR2WDxIdnpE4pRTrAYa/GzeJVWk12+X5swrwkJ04eDQSHcUL3MyJdbxDh3Owr0E8wIbzhDQVjNHGApytBBMEatNsLfUw7BhBA8G2GExaQQLCT8IsQLgXgy/qNuk4bC9DJjaeeLafBLFGglmBpsI4l8RdcYB+JWppsuileZHLK3Nv8K5EdZJj6YvcM0/SRdk+cnHC7+YPHFSy8U/hxAXMvFhyLMitkY0mKRp7uiQrc+zLyi9+0Q4XrkYnlroz6KWHqHXXtlPi+HXbJ49NmHFYD/OozXYsY73Uxv+/Lt+0bnjnTh61+ufxH0fOa8M0OXns/UYAl3KPhFjoytsF7vGKbgoG5ij6ZWHqaK/GUcEynGKOqQMWgJ5+Irb8xcevXNL0JOT8hc4YjIFqol7zerdAl2iJtMgr7M7YjTY8aN0NNLMOMdtO7dCitRe5Ujt40w7WR6KfEqhfEKw4aBebWf7lckvxk+ntCkgZKS4fCMrfZGObQoXRz98GGP+IuaZAomY6vvoBT1HreRDzzm1fadBWMryITwiUw0IVXXUaNiODwzfhRm33gMUb/QB8lHSdIEM7b1M6NXwvJNmQErHEekojnI39ekMCg6/GJGF5WYhHM38xhzYaWYgqrZZqStNQZVzWpV9EOEKH+wdzOPkYvji5m9vVkJinuGOeA6xLguYimcRHtlYRvgfETFJVNBYVDLe25lqHv47K2Vm+2Ncr5P+H5QJBQlV7rnwysA8oS3T35FcHSFTRyevVGjl4e5WF0CUA31RWMKv2KcAepMOyC3NDgQBeF0Ak/zZxG/TQegej/VrUmOMxr8ghoX9Ug9zhALgDyy89U5OIgqymGMl6mVYIa6pYSxRQ4qcSWUZ97+JJfqZRpS3CNESYiDDc5GioMiJeJQbfhLpiOeNWtCLlMrwUQYXiZhFX3U4myKDTbqN0YQehlGIIxNKIuoR2OLiWoyaSoaAiGqhF1VG/acWUQtmiF7xVGgnWBivHmGOwDqfUIjjtDrUUY+vKQSVgiBSRaNT8AuGLVML12Xy1645PLV6d4FLIV+EYpAhKISzSgEPmy0FEwcxvmBCtif/vPszWuHgBYDTRUiiXE3TIhYCiExwQ7VcGBeJVBdhiCESwT5zUjWagWiOco87LMJuY80CrQVTJ0Zay2XiKUQMhG3mwyL73X2072G5DrDI0hNVUL6biOZqBNFIVB7vay1JmltnI5cfOWNly+9+uY/jPSHRCyFiLh8+36RmHXYH+uPmWRwI9PNNCRkOzlhepthDzQ4JBDNelh9miKYFuGHwTI9TyxfHPoPiVgKEaMon3kqIp7hEVK7XadPmIsifRWsP6uFMRFI91F5Wg0u0JnZW5v5bqbXErEUdCPTyyz5oVGNGOT26YNupvev2eWN92Qgwvj4865dvDThdzyVYkRS5dxqlvf9pdCEm5MOOEgfQKpkTWesTfgilkKMBK1NKnfJng3TDjncYOaGDOsYHb+S9jxGKzR8FsKqL24R4Q+fZ9TGtLHTXi9rfbESwTwFv6iCnfrIlYgiloICxrrYqaMD5gYIzX6q35SCoeEZo+3uu8QwVccfysB+bnP4wsiIxTwMRDBPYOzmcJngIygiyLGHMykrfnbB3PQEFMC2eKCnM3FbR0xDAgI7l4YoCgp1aHxUiGA+w9heJUQscdifmu4NRlw5OLOnygVtOy7v99K9lngZkxPr6Lxo6XjCSYSm94yce5JqJvl3dRwTtnV0Or9cy33zi/VYPtPAVs97zD8jnh0QGpkDLOkulhDB/Bb/oD/Xm2TSRqef6s0l6dD35+f2U3nAmQPYE8m5ib0bph3A3RZPY3yyy5veZxfbDsYYeSqizNwiplbSByf4rSeDYp6RL/hOD+Vf/V20C/RtQwTz24KJ0eLtz8EvJeFw9/v+XLcIouMmMEWBH6pjx2nILNPhiGmriU7sAmgBtA1PSIHtdC+9nRSPdIKdlQ/b6+XficgsK0m0YHoeUrqfHrei6wh2L38+IpJFxfmxw0KRWhIuJ5OgY2+mAnY98WRGE8RNm5+ZsUXTgEIbnUisYAZFPUuTCwDdba+8FvrYKdUMwq2ZJYBLmhaRbBGjkvSQ3EkMvr/0l6rt0Az/wsWO07AxJyqiGT2JE8xglFgtpHDiVntlXuthwaPih6c9kTTHOxHhPAHxMk/lqXjaFOoX0YyWxAhmkKeshFgM0cl00zlbbqkRfD6x4pJb/vX7i1LAcATxMofGqrVlE4hm5P2ZpmO9YAYFELWwhYAY123wasLL46rH36f3/rzW+/TiRrzMkegAVO+nujXTq91FNKPBWsEc9FNiKYrDwpaD+Xf/y98V+o77iWo7Qmarn+qVTD/wwiKBFbMhQXcz3VTFZI9z7D5NEc0TsU4wIw8tMh6278wbX4odfE4fA9B6duOYdJioZFNuahIs7suMmg4RaiZfjgPRHPnC5DsFa2Vj/95RYc22kuzyRsk7GIIB1JEdDq7jrkb12nGQW3ownV2+Xws+JxvF0mOKmD8eTL0RABZvYTymmPFOdnmz5V0wVRszDv74u8EWkZHw/96Fqjw3z2C0h+nn39x0idkfuRRHEz0effrhH3792Uefx/FeYROE5xpxfVZaIIPwfbLLm/uatgcZBN39zd9/9Pb+56sHqi0ZlexitQZg9MH8Uj37HYwUTM9zIFBRQaGKsW0kFs0YHR0RTdM2megL4277zryRfdfZhWoTNHr0jYB76ccomTDrNWqMCclevn2/mL21UR/clOkDBWLZ6ad6Rh66fqVkUsUSfkLmxuAzSDJuwv/+IUF4a/b2ppG5vcwTFMdZ8Oydtd3zaObyVVtTOEOjtYd5xJPMqw4nmVgZ6697SvebY21esRFGuX1nPrG9mtlb97flWQiNrUw3XTStijbYUznuovFduCjGsRZMV7QTTC1HsjHttO+8NqfajFEQsTweJvpRUqtns7c2l0CoqrbDInYBLpo2o3bsfOaADhGKe2tl43vQx0GbkKwnlNlbG/XBZBI/16KHWPq3CjYqZ5Fd3pjzFwmLWD4HMde9Z021HSrop3uJvChEyBWAmqZV0LbXy955tjPmH5/yPNTsYtWoMzEstBDM2dublVQ/va3jRBIC7pk00SeohB13qWwSmEr1MokUjmCYw65qOyxjigkPjGthcjGpvdVsoVpPWl5TqWB6h3v21v3tYGmzlgd8L9Uz5iYlYjkkxFdNLdyYHErkZSF66AOTRDPIQ07WHse40T2Ppj8cISEoE0w/nwL6mc5hQyK8a8qItdzSg+ngMBSxHALvkpbE0CwTjImWmIdZoun0cC+El7kKB81soWrM33sSYhdM72CfXd5sGFB80Ek/SRtRUfm0wCdJAwlCINVPJ67VIqkFT/Fhjmjut9bCehamwPggCSHaVFxvdPGVN2b+7X+o/s/9VP8jEP67uN53TA5SrvMfdqv/w/+l2pCzuPTqG/l07r/9GIT/RrUtBpK79Mqb9PVnHyXK67r06pv/HpDnJTqoeOnVN+YA/PzJr/7Ph6qtOYkn//rL/+d7LxQ6BBRCesk5N43SpR8UXiDCbx7/v780Ijo3CrG0lXhieenVN78wJVxoSs9lsAz7Y9V2mI4tq9qGRZ6b2OgAnNe97cSfGcuIouByBy5KNvVtxhKSvfTqG2+bIpamhGJzSw+miWWodigQjCnsCgPX6VpzgGnOFEBN3XPlffjbnUaeADQEV+HgZ7OFqvbOx7BELphBMcqfRf0+YUGEmgnTO7qZnhT4hAQDr+t+qIVJUMgWxQEpPI/fxjQ4B/Xk4Vq55Z17Ub2+v/lksbo9W6ga1a96HJEK5pFilAtRvk+Y9Jye9l7boMJY9huGSaqXLqq2IWbEy4wL4qvddFfrqFX6wBfMKC9RV4OBBzWTC4MiFUzfC9K4beQ5mFd1byPxPaHBgmwhVMiIysbwIBHMOCG6oXP1rL+JhBBHBfVb3fNomdqGEplgBtshjPKCCKS9d5nu+/lVCcWGDfHVJIVlwaz1xdBOqKbzMxbkMuNg0IZiYJg2EsH0b1Iajrk7FaYd3SslZ29t5hWsNUsMqX7KqB/vJJCEZFUwpXPv78O1cguE1RjfchCmXag2ZwpVbS8SRwldMIPxbFrH64+FXO1tZgnFRgqBEpPHZGLtC9ss5VpQg6An/eiKf06EcC3F+DJbqNZ1F85QBdOvBGOnbmLIMNPVeyD35dv3i6aFuE2DgcTMxNS9N9BqCBVdq2aDnslxN5lMBuOG7sIZqmB2M/2KUUU+hzCv6t5KQq54lzFwRdeDTLCKKa2rZiNsMRmKQ+HUsKI2NMEc7ITjcZeSKoUdR2vv0v9sTbyIGEgv3UuMlwlgS7UBiWVQNavls5Y58KtldejTHVTUarR7MxTB9G7lTNA2mX0GHe0HUidsEo1KmFjLUJBgI3rWesTYYjIMU/7uzcXqtg5rxEIRTD8Ua+qmDGZdHoxjmXn7k5xUxsYHEYlgCnFxbRCZ0w+Cdg6QFmP2JhbMQVjBzFAsDAjHpt20kQ2+ggnI8ALlaBo92lsrNwHsqrbjWfwxewvVpqrcZggepp5hhWHRPRzLDBHMGGGGljf+KCBpLVGO5nOM9TwbCde656EkRDuRYJre6kAIZeN4ZARFAWaGugVBGIpUP6OllwlXu7DsUa7AQTNu0ZxIMInZaO+SGVpP9gEc8S4FwXpYy9950JOpQ7XsSUz5ohnjXNqxBTMYJGy290Ost2AmKDwoCAlmStvB7PpUy56EP5f24guLsXiaE3iYZHoj/a7O0078BnrpvRSERKDrWEZ2tRdMn0u/V4jlwjGWYNrgXeo+fPrJub54lwogQAphhNjRtXXs3BPd01YBhD+LI585podpvHepff7SAStv0k0kpPdFSrCXoIhSK/whBqpmy47GBTiIvN1kZMEMGm2N9i59NM9fJqm9QRAE70jS8zdP+ucxD5nqno/WERrdw9S00XZUdM5fBujam2U1rjTzC6rQVDBd16ioy9VsoRpZO8xIgmnRmDYThk6b78UbiONKM7+gCOKrOm7LMSaPeQjjxuWFaiTh7ZEE054xbXp7EbpuMUgCe3fmzTocBKvQcVuOQXnMpxAhkp2aIwmmNWPamFuqTTgNYtLulpkQtJudGSXsSkWwdjh6hmUNLIabSkUwqWhowbRpTJvuLSWCIljvQrCwkd+BfrCr6Xo5NvBZIVwLe5fmCB6mPWPadA+7uY54mGrQO1QvJABN18uReR7mIZUwQ7MjCCZr1yM0JtoX/EgPpiI0bzUKG90vjglFy99++sBYwZxKM0KbeT6UYAbrZ+wIx5JhFV9CXGg9KjFCdB6unUSmVBtwHEHhj5HPCgOvzxaqoeSGhxLMVC9ti3cJuCKYwnGQKc3ZYZPES4IwDibmMQOYwykAGkowiTSt3BqdjhFhKBH12OGERh4k4qIfwTQ1/XCgdXfBGVwJYw3YUIJpybAC75qRVC9COJ3dr95/LZHPhkw2EoaFYLRgekI28Qz0MwVT29vOGLDjJPJQFM4iseFYnHuSEg9TGArDRuQdx8Re5pmCyZpWbY1BxxQvIt1Lm/5gGkU/1Q2tis40WrXr+2AyaoqLoAbHsWDQxYRe5hAhWUtaHAwKx/qHmBAXWw/f+6HZoaYJIcec34agjp7pIdkBE3mZQwimY4VgEiiyCfYRoX2/qA1QCHkN02GDLpOCOh6ulW0QzIm8zLMFk/jquC+uEbtGVMd+BynGiIEt856L8An6TxM1R1dINFfG7cs8VTCt2ZoR4qSH+HBFMCNGvMsjGPkbsROtaxjYjsgXY7xFIqcKpi1bMzK9tGnhWPRT/cR7PhEj3uUR+umehGU1QWoYYoBxI5evjqxvp4dkdV01MwrMqyY+gEEhioTJIkK8y+/iP2/Mq6rtEMwcP2ci3fOje5kj7cM0kX66b/DBmNz+wEhhXhXv8nkMLIyzEX3DsX5FtVWTocIVTG13sw0L86rZLQOuHGDh08n0MqHuyLOF4BJhRY7KXKTYL0aujrr663QPU9PdbMNitncp1YvRwEsmhujjQkLVimHW/YJvk4eJFGOkxSL2hmSN9y4DpHoxNAi4115ZEK/9FMTLVIzmO1ktGV5wlJHCstYKpune5SFBha8UAkxOJ91NT7ytIAn0Uz35nNTQ0X0nqzXDC77l6ijVslYKJhHetcK7fFpiLsUYk0KMooRih2Pw26G7qu1IGmRKuNOSXsxDuheGD8vaKJid9JO0VWHMYDi4eJnjwihLVexoZLqpiuTP44VhyIhC0ruSdwyGbp+0UDDtK+rwbvxEksscC+bV9p15+exGxPsNMZFUE8dIppsxQjCZDfGEh4WH38hlm2Bu2VrUEXjNcuMfBaad9p0FyceNib8OT4YZxAIB90y56LuOdR7m0HnMswTTnDwg417nH+ojlQibhPdjevTZRwUAX6i2RXsYD52+U/7NTz96WbUppvObn/74zwH+C9V2WM5+59MPjSlSDAp/rMpj9obMY54+S5bMEEy/XeDOfPGbn/7YiBvauHz96YdfZLrpPxRP8xSYdjK99L//1V/+cW3/89UD1eaYjvcZtlcW3gb4pmpbbIUId7/+7COjvDa2rN2Nh8xjnu5hukbEqhPVLjAI27C1nvRE+GKZypsS2jIJP9Uh4dkoMLJI8dwTI7RheFwMNaTnVMHspXvae5hJbBcY9GrJjf8ZWiKW0eLng5l2VNthFYyKic9sq1neJ+CeajtCg3BtmP/ZqYKp/caMBLcLDG78KKu2Qxceffph2cSDxzS8S4mIZmjsmlzBzQQjqnrD5OwqWdZ0VJO0C8D/+0uYzHsYbn792UeJ+/GqwLuU+KIpfcETQzzeEmNdyBzYJZjZ+eqZ7SVnCyZpGKuWdoGnDD6HxE5l2QX4JVtbiXQlyKOLaE4E3TU9OmZbWJZSOLO15EzB1K6ZNijsUG2GTrRXXltKXE6TeTXTTc/pPnvTVoI8uojmeOwGk5SMx2Uk6rJ6pmB6t0mNbhEdkFuSXNXzeF4WE/0oAQdYx/t7ep61PAdqEdEcF7amUPGrjXLDlu/fdUPwMH306LnpeD9O8ShO5qv3X2v0U705e4sy6G6mm875E2gELTgimvoWB2oF37TtDLNlbKfjnD0ibyjBDGLtKn8QIpZD8vC9H7bad16bI8K7qm0Jka1BrvI16+YE24D3u8x00xZf1EKCedXGfHsPyQnLDj1LVuEgZhHLMdh7f77iiYzhI6y2iHG9vTIv37/mHFbPapS+0Qu/qt/OQkV/VB4hEdX6QwtmEAaL9/D1b6wiluPifW6e2AQFQSaFzJ4KpemVhEnCE829lfligqu2j8disXxK346w7FmMtK0k2MQeT4I3qIYVsZyc9spCvb0yn9NcODuDnlJ+SYTSbNorry0lpADtbJIglt53vlneNn2xtOuevYWFRn3R7PJGCaAPxrZqKOjuoFVCiILLt+8XHeYSA6+rtiXIT9Yz3UxD8pN2MfP2J7lUL9MA8VXVtighIWJ5yGyhmmfGA9V2jAsRru+tlU+9qI8smPBF834N4LfGtuxkOsQoincRD79ze73guKn3Yj7QOgQ0Gdzop/rNYPyiYDHZ5c0Ho2y1twJGOYmTyLIL1eawc1l1IzLB9Ji9vVlhxjvj/vljTLmb6aaMHERsOrmlB9NPzvXzxMjD+ydcAd0lYJsZTe/fchlKHhdfeWPm0qtv/i1g5kE6Iom+9M8UqrkU40vVdoxDn/D9YNfniYwtmAhCe8RcBzA19oswr/bT/Yp4GnqRXd6YI6ZpOIFnwJhjnNzYS8A+aJADcEHbjsv7ST00hOMJ0jm1ic4LvdnKdNPWDCUYl2yhWgfjhmo7RqW9Xj5TDycSTATeSe9cb4kZSyP8EHYBavRT3ZoIpSAkhzHPC93pgFFJYgj2OHL56nT3PFqGfb877fXymYMLJhbMoww8Ts8jYe+NcwCuHBoD5m2AtkHclMpXQUg21ggn82qml5GBGs+QXax632tVtR3DQsC9vfXymYv5QxVMQRCEUTBYOLeIUZG0w8mYVABEhHf31spnDsQXwRQEQQuCHGdJ8+KgFjFuilCejb9f0vHXQ2p/ERqmQhYimIIg6MagfzNd9MVTnx7ODkD1zj98UPnmpz+W8OuQmBKaHabgByKYgiDojC+e/VSeQEUe9HLG6a10wNxgx2nIhpzx0T00O2z+0iMdvTmCIAjjEVTR14N/ngoo4MwFxYVzIYro055hKU4Mj8wTFLvn/ZazK6ptOQ4mDH0ZEg9TEATjmb21OegXdo5MFDqhd5gIT3NV0jMcDzrnMzOP8dutZnmoMLsIpiAIghA52UK1BEbEc8hHhLDaXisPPe93pG0lgiAIgjAO7bVyHUBZtR3fYcS1ZCKYgiAIQiy018s1bZZNM7b8tWQjIIIpCIIgxIYfAtVANPsORl69JoIpCIIgxIoGonn3rM0kxyGCKQiCIMROUGyjIqe5m3mMM8fgHYdUyQqCIAjKuLxQLRJhsjWRw9OBi/youctDxMMUBEEQlPHVRrnhiZi/1SpqCEvjiiXEwxQEQRB0YbZQrTDjnUhenHAzaG2Z4CUEQRAEQRP8qUCEWojzZztEKA6zjeQsRDAFQRAE7ZgtVPPsojKRcDK2+g5K41TEHocIpiAIgqAtvnACJTCKQxcGMbbIQSUMr/IoIpiCIAiCEXjiCcDzPAdD9g+9T0aLCDsMNPuERlgepSAIgiAIYyBtJYIgCIIwBCKYgiAIgjAEIpiCIAiCMAQimIIgCIIwBCKYgiAIgjAEIpiCIAiCMAQimIIgCIIwBOmo32Dm7U9y6V46d/ifmXi/vbIw9rR4QRAEQVBB6JN+cksPpruZbpFARYY/jeH4UUZMOyA0AbcuAioIgiDoTmiC6Qll71xviRlLYywC3QW40l5ZmGj1iiAIgiBERSiCefn2/SIx1wBcmfClRDgFQRAELRlbMKdfvnGh77h/cunVN/8MwMvhmoWWS+5Pvvn0x/WvP/3wi5BfWxiB6dziBTeNmeA/5ob5MwzsE7Dv/d+PfrEuQ5AFQbCCsYp+PLG8+Mqbf+6m3LeGPURHJOew89bFV964QuC/fvTpR6GuaBGOxxPHfgo5Isww+9/rzMVcYWpUwcRALH3BZIYnmI8BPPT/ITxkoPXNL9b3o/ubCIIghM9YHmb21v1tEF8N35wTYF5t31koxfZ+CWKmUM2lGEV/11x4G86HYXdQ9IVm5gCNVrMsAioIgtaMLJjZWxt1EN2IxpxTENEMlVy+Ot09j/cA/JlqWzB4EO8xoSHiKQiCrowkmNnljRJAH0RnzhmIaE6M51GmgdKY1czxQFgloB72tnRBEIRJGFowZ97+JJfqp7fVH7J0t73y2pJaG8zD9ygvoAZG/NGBcWFswUG9vVaWqmlBEJQztGBmlze9236cOa5T4JvSejI8s4VqRWuP8mx2QaiIcAqCoJKhBHP21maeCQ+iN2doOgDnZULQ6cwWqnlm1EPoj9UDxhY5qEioVhAEFQwlmNnlzZZ2hy7TTvvOa3OqzdCRoKCnAuAt1bZEAmE1c4AlKQ4SjuI9970L8M8E18W04+C588F1se04g5an9AG25RkSRuFMwVRe6HMqks98lux8dQ4OGtpdcMKnw4zSVxvlhmpDhHg5Iox5MOZ40B88SZvbDgEtELYBNCWCIZzEEIKpoXd5BGJc37szLw+4910VqiUwNL3cRAMB99KPURJPwW6C9EIRg4UO0feAM7ZAaPQJjYdrZZlWJficKpga5i6fR0KzPtlCtW5UBWy47D7657WXv/6X9YeqDRHCwxdJoISBUKosWNsBUM88Rl0uZsnmdMFc3mww8Hp85owJo9y+M19TbYYK/PDUedSN+J6ipdFeL/9ItRHCZATh1iVmlHSMbLmEm7+Wau3EcqJgDvZa9v41XnPGppPppnOt2vVE3f6C4p5mLCEqM7jbXi9LTttA/BGNQMWIKIlUaycW56T/RzfdM2mizlTvXC9RB6WI5bG8lS1U695no9oQYTg8ofS+sxTjSyPEEr6bcY0ZDzy7PftVmyPEx4kepl6DCoYiMV6miOWZ7GQeIy/5Jn05Enp9R7UtE9IhQm1vrVxRbUhS8J6dJ+eQd5ygQtodbFEiB01m7BNhOyrv/1jBNCwc+xQivLv3/rzVD66I5dCIaGrK5YVqkcgfqGHq5Knj2IGLUnuzLMNUIiA490qA/88wZ18HhAb6qIX5nRwrmJdv3y8S88dhvUmMWO9lJrwadlRENDXCz1O6qMe8Ri5uyu31ciILEKPgSCRi/NGejK2+g1IY7UHH5jCJ/V4nE5nqZrpF1UZERXaxatbwdPVc9bxxyWmqx/MqU4xty8XSozq7WG3IMzc52cXqUvc8WkHYfvxoBOFaivGl93qT2nR80Y+5ggmwY2Xxj3fgWDvqLlquBiFsQREXX1gsEuFjy0KwJ8LA694zJwVB4+EXgi1Uvd9sNeRnpupH6Cbg2JBsdnmTJ3lR9fBLNg1m90NZDA1WqxkMYbW9Vjap8tsKgtzTP3mPsWpbFNCBi7zkNYcnmOjUiPSsm+AseM7DnL21aa53ecgg3m0Nft5HxHIyGDf8kLYQG9n56lz3PFoJFUv4v1kHTX++s3Am2UK1xOxPlov2rPPOgjE9zecEk4nNDyMQWZPH9OPu9ud94uItf96uEDmep+CJhVz0RDSHYbZQrcQ6B5txw3/PEXlOMInIfMEEpi7fvm+8aAY5EKvbZGKH8YEcXtESm6dgDiKap+B5eyr6cb339C92I/C8h2lywc8RyHWNF8w0oyaHTgQ4kCrGiEjixpwhmZLn7nmC50VZ5X+wYH9oThyNZzyGh2WDTQ1JH6geFVd650f7oQhnI2J5JlekYvtbNHlerowSmj1OMG0JG0xllzeM/buwK6HYKPEuI0GrjhACfrhxEBERTueqFJ89fV5Ui6UPM5aG9fyPE0xrQoBkqJfpx9Wl0CdyiCCD2kPAP/ykwGcU3kryZc3/zTlaedpTvQvDdVbYG5I1OB8r3mVsTElodjKCw0/ankYkyZe1ICyt1fMyrJdptWAatm3Fx6+MFe8yNhh4fdRKOeFbgguHLAIYnURe1oJ8oY7Py1Qw3P1UbBdM4wYxpKSNJHZGrZQTBmQXq0tSmDY+ScujB1N8dF7ndmZY1nrBZNOKmBiJ+QFpxBUZaDAaQU9hVbUdpkOEWhJCs97f0YCL6ZWzemWtF0yAjRHM4LapVWw/MTAqSTi4QsPR/vAzhSvDFpyYTPe8Hzm7otqOM3FOD8vaL5gGTS4iR7xLhVwZJochaJ2HMpJR2hpMJKgRMGXT0qlnsP2CaVLhj4RjVWP9TX9SZgrVnOZ5KBMZuq3BRNis/txTw7JJEEzMvP2J9l5mcAuTcKxaJJd5BsHmHCFkbPUyg9+TWdEI5+R2xEQIZrqX1l4wATN7Rq3DlbDsSchAjUiZ6l6wK8LkXwDYvKp/OuUsPk4wd6M1J35MqJRlVwRTCwjXZFP+8RhQ5Wg2lu3xDcLM+hf6PMNpenGcYLaiNSd+yIH+oQ7SX9STQsqygysMgtCacYefYVy1ZQVY0EZi6u/oxOf8+X2YwH7k5sQMu3ovxQ48Gslf6oNVobFQMDC0ZiRntDWYQlBxbuyZdtL0r+c9TMJ2HAbFiuatJWlAa/sSyJkNzEkiODzEu4wHWy5rpnqXPq57fFTymAXSbF1I1gAkf6kbltz0Q8Hc0JqJGH9ZsyF87zjHp8ieD8kyiWDGDLMBOdbkIZeYw75LmRcbL6e0NRiBxZXmzwnm3p15nfaUhYXepfAsBT8actXGvrhRScPew09bDB5gYs22pRPO5JP6MK1rLRGEUXlyzvCbfggwi2DGjsGCY0uF+UlRv+MFk9kuL5NpR7UJp0ISktWRk/IYSSHIpRmdizIVg/OYxnrHw3CCh0l2VcoS6z6aSXf7Eknih0lI4ZM6UuZd1pJwwTpeMMkyD1MQxoES3+6T7AuDQsjEVrMEXLCOFcz2yoLnYXbiN0cQtMLq2/JpBMM0JPKhCjMLAa0Ox+LU4evMjVgtEQQNOWnih+2kxLtUimmtZkkIx+JUwSRIWFYQkoqZHo49mDZb2vTe0SE5UTAz3YxVHmZ2ecOsB1DQAk6qcCT1760PRs1hPW0llokQHT9T/UTBbNWu7wP8F5FaFSPEpHOI46FqA4TjoQS2/Fz8vcUZk3sBhXjxnhcGFlXbESonzFQ/dYF0ppt5z5biH9fRWDAZP1dtgiAcMvX/L7yo2gbBHC79fuFPAFxQbUeY8AlrLk8VTN/LtKT4xwFLiEkYGdOKL0LCqvCaEDGm5VuHgMYRzOBP1qIwSPgWcqTAShAEQ3EN7Bk9A+6PmMM8xO/J1H203BDovkRa0JOTkv9WIwU/wihYmO9ub5ZHz2E+hVzzvUy9l0iLhyloQ0LD0MIYBAMubOPE5SNDCWZ7ZaFuwQYTbb/Y3gnxckEQEosRxZZpjc/VseGTz+PhPMzBq1RCMkcV2k6heLhWbpnyAxEEIQb4+LYG3XBd+6IRp9WUDC2YNniZWg8vMOQHIghC9JiSO7dxBZ7rnnwWj+BhwngvU+fhBVIpKwjCU05onNcNG/PdrhOSYPpepskVs3rPOxTBFATB56TGee2wr6J6N0iRHcuIHqZ38eGliU1ShcZf7t5auSl5TEEQfPpmeJjW7Yw9Y+nIyIK5d2e+CebViYxSBLPWrSUg8TIFQQA6J/UBaoi2xZRjEq5gemR6mSUjvSFirRfiMsGKMYQ2YWOO5iwkn64YQwoAgx2YVtGPQjBbtev7TFQa2yqFzN7a1DaPmTkQwdQOjcP4gqUYcnFm28KxZ+QvMa5genz1/msNgO6O++eVoXHhT6tZ3ifgnmo7hGRjTMGJrbhmePgWtpSceVEZWzDhr/9KVYyrmtXcY3AZddU2CMnmpE0NQizsmpK/ZFdf52Ms3LPP3okEs1W7vt9Pd4sm5TNZ89VFX22UG6YPiLAK+8JOZxJUbAtqMCIc62PXWq+hLioTCabHw/d+2CJGcdLXiZEprSf+DDB/2L092FYFOCxmRY5sYQgvRweCgp8p1XaEBdFwn/vEgonDVhPwzTBeKxaYtPYyM4/9L88Yr12wEEMmzViGMeFYpKzyLtFDjIKJp7NmzRBNIr3Dsn7xjyzu1obZQlXr5yUiJCwbM8N6OZpgz2+CsXVWdewhoQkmDBJNBl5XbcNZpA98wRQvU1DCWf1oQvgM6+VoAdsjmDxCCixUwcR3RVPrw/7y7fta513Fy9QKaw6HYQlu3FJ8FheE1WG9HNUES6Ntye3vBoWWQxG6YOJb0czrLJrkuloLJr71MuXQUkwSp/0EmFOxaTh9wJhNUCmbLpA02uceiWBiIJrbmW46p20jPpH2gul5mcwwd9i9LWjeuxsZhlRsGs8IOTQdMKwr4jR222vlkZ7xyAQTQZ/m3sp8EeCfRPk+YzKle1gWh32ZjC3VdiQau/rNhiao2JQIR8T0HRg1ZlT3XvahGdG7RNSCechv/v7HJSK8q1uI1oSwLL79QWn12SWMqVy+mtSwrOTRo8Sg3KXH5YVq0ZL+y5G9S8QlmPufrx7svT9fyXTTOa1WgxEVc0sPtD8Igx+UMTkOG+ldSKaXKT3BkdIxKXeJwSYbI5yMsxg31RWLYB7Sql3fb99ZKGW66d/WxOOc6ma6RjwA7fVyTdt8cDKwIww1Iq1med+U7RmmQYSaSd6ljw35S8bWKJWxR4lVMA/xc5tPPU6U1eZJzFlTln7sh2Ylp6SCpBb+GFbBaRA7e2tloz5XW8Kxk+SMlQjmIQOPc77WXpk/FE4VHue1mbc/MWLAtn/bd2HUsHtbsKbQYQx8L4igTyrFBlyzCn1gSTiWCO9O4tUrFcyjeMLpt6EoCNWmeiljbnp+5SJJq4kCpoKG7UQSeJlyUQsB74wzZmZsgF/0Zn44dmKvXhvBxHOh2hiLgwwp/jmkvVauBxcLIUasatgeEe9WLpOnQsG4UKxH9wJMD8d2wvDqtRLMQw6LgwB+CYilB3Gqd65nlNfm/+gkTBY3iRVMHD5zkkOfhE6fDPXSzB+gUgnDq9dSMA9pryxst1fm83HkN5mxZJKXiYGnWZLK2RgxPyQ1MUTm5d50gQhF46piv919eVW1HePinZHt9XIo0RGtBfOQp/nNaMVhqpvuGXcYBJWzsuw3HqaCwyOx7K2VmwDuqrbDOAg3g8/OPFJGe5c7wRkZCkYIJo6M2WOiH0XmbRIqpnmZrWZ5P/PYDxWKaMaBk+ywLAY9wUvyvI3E3XGmyuiA4cU+ft7S7y4ICWME85Cv3n+t4RcFRZPbNC6XCRHNuDEuChEJroxrHArCanDBMJLeBd+7NLPYx0U+7Gpk4wQTh0VB3+Y2Q8XEXCaOiqYMao+aq0luLznEO4iY5fJwKp5YrpWN/oyM/Y4JN6No3TFSMA9p35mvBZW0YVbuGellIhDN9kY5L9Wz0ZIyN0QVKv54McJN1XZoiQVimS1US0YuivbEMqIQuNGCiW/3bs6FGaJlxjumTP85Dr96Vvo0o8TogzBMgoNJioCOYoFY+rBxIxE7UYolbBBMHA3RgkL74ab6aSOT9IfsrZUrzIiuQCrZSFj2CH6OTqIaPv4UHwvE0kDv8sDPWUZcXGWFYB7SXnltCeCwQkTXTFgwfRpfbZQb/cHyYykGCpmU+Y3coRKIRLI9zUHriGle2fEY5l26iGfcoFWCiUGIth7kNSf2rIi5bmIB0FEerpVb7fXynIRoQ8foy1QUBJ5mEnOau3DxkqmtI8+SXawumeRdemfbr9fL78XxXtYJJoK8JsD5EERzqpvpG3XTOgn/5uviJfE2Q+NKsO5IOIInGklKBRBwL/MYc6YNUz8Jv+/SlHVujC3vTIvTq6e43kgFnnfYTfebIJ5orBMxru/dmTdzSscxzBaqlWDjuJn9VbrA2PKrkoXn8CciOaibPFLtDDr+fNKQRq7pQnA2vKPajjPYBaGiwqO3WjARnmh2Mt10rlW7HtrECNV4N8nueTwAkrsYOQz6hO+bOB80DoJnzLv9v6XallBhbPUdlGz73mcK1VyK8aVqO06gA0KDgLrKEYPWCyZCEk0C7u2tzFsVgvveC4vTUy8UamDcUG2LsdjSQhAh2cVqzSLRXG2v2/l9zy5WGwy8rtqOpzC2yIEnjk1d5vAmQjARlqfJKA+GJdiFd7NMAyUJ045H5jF+O8x5lbYxnVu88L0XC28b/nx1iFD75ou19/Zb6weqjQmb2UI1z+xHnFSyQ4SGTgL5LIkRTIQkmo8+/fB3vv7so4fhWqYP2UK1RIyiVjdNzSHCu9a0E0SIH/IDKoZFNHyhTB+gZuulKAidbyuqjN0BUO8TGiaEuBMlmAhBNJ2+8+6v/vKPrT8c/R/RBRRFPIeik3mMnK0HatgYIpy7RKjbLJSHKCj02QXQ6BNqJojkURInmB7TL9+48Ft/9Kdvg/C/ALgw0h9mfOO49D/96i9f+9vIDNSQSy8s5jwdZYb375nvvVD4tw4w7f13/mfImAH5n+WMalsVsf6bn68VbQzXRcV0bvGCm8bLzJi79IPCH2AwZONFDJ6rOPkCQMsFvvjNL9b+kQlffP2LdSvaRM4iu1CtgCIXy20wPn/0y7V/BGHb5M82kYJ5SHZ5Yw6g5lh5FebV9p0FK5P/kxLkRD1xnfMF1fs34Zpqu2LgrsmrnHQhaEnJE5Bn+Gvrws577gBoMqN57gmatnuQJ3HxB4uFSy8UPonsDQirfaBimhd5GokWTI/Lt+8Xifnjsf6wpUVAUeEJqeNiznEwxy7yNoqotJmEz+EFDJ6AMqbBQSsU+f/d8Xm3wzV3DloEtBiDf+taTKKC7GL1g0gWCVgolIckXjA9src2l0Cojven+eZgHJ8wDofehB+OY9+bMGYk13H47UfrZavajwT7CAp9vgw1/D1oA6nYfCkRwQzI3tqog2jMIgQRzbAImqeLEYbjIocI120+NATzCbnncpcZS/5+VMsRwQyYvOVERDMKgv4wz2PLGzRmbbe9Xpb1X4KWBMPVx4yofZektVSJYB5h5u1Pcql+ent8r0ZEM0oOvc8g76K1eCbtIBHMIEiB/GziF7J0POBZiGA+w0RFQJDq2bgwQjxdvGTLFgvBfIK8ZWvCNEcHhCVbVpmNigjmMWSX79cAHn/2JfNqppdZsmlYu84E4vlXABZV2/IdZJuJoBHZxer2JJdLAu6lH6OU1DYciGCeTPbW/e3J5s7STqaXyotoxsflhWqRHBR1miAjoVlBB7KFan2C30WivcqjiGCeQDDUYNJY/y7AxcFCayEucvnqdO8Clpj9cK36NhUJzQoKmajIJ6G5ypMQwTyFyfozjyLFQKrwvU5gSfGQhJ3MY+STHMoS1JAtVEtgfDDOn5XoyPMoF8zZW5t5BpdAdNi0vgugRYQmMzdUe2fZ5c0mEMJhK3lNpfjVgSksKQzXytg8IVaCithxRn92iFCUXuLnUSqYQw0LYNoBuTVVHlrQahLWFnIJ0SpG6aYMwk3JAwlxMLZYMrYyT1CUaMjxKBPMMcKdu8Qo7d2Zj/3WM3t7M9T1N36o4/15CXUoRNHS7A5c5CWfKURJUDU+cj+5hGDPRolg+lN1Mr2x+oH80uZuuhR3aHPiqtlnGXjOJfE21RLs/azF6HFKPlOIjKDXsjli+0iHGaUkjLabFEfFm3Yz3eK4t3oGXu9metuDKtb4IHC4+SdffOln2eX7Ne8CEeprC0PjCVd7rVzqE74PwmoMb3m1dx4SlhVCZ0yx3IGLvIjlcCgRTMCZVOyuDMRmI7aJOn4omDmCA5XfCi4AMh1IIQ/Xyq2nwnm4GioivEtfdrEqa+GE0BhLLBmtzGNJEYyCkpBsaJWnPnS3vfJaLNWHQQHQPwG4ENFbbBGjoiJPK3yXYOh7PdI+TikCEkJgTM8Sj3659qOvf7EunuUIKPIww4Tf8qttY+Dhez9sAfg8wre4xoQHs8ubDU+cI3wf4Qz21srNYONI2S/WiQLGB5cXqrI7UxibccXSu6yJWI6OBR5mQExDz//df/67t92U+79G/T4+zKv9dL8SCLWgiIgLg6RyVhgLGwp8BlG7VH6QpuPDVN0cmFog3gdzix2n8dX7r2lhrxLB9DyoEJeXfksMonnxlTfmLr365uTrcUaBeRWEmlTUqiXCMK2IpjASY/ZZavGc+SLZSxcBKo3QebDLREuqhVONYIbc13iUOHocs8ubLUUzSreYqKb6oUk6s4VqFM+vFoeZoD9jiuUOXJRUPl+ztzbzICxN5izFV7Ny7LureNOJd06eSbSzWwcVrTTWfMaQ2AWjluml6zJqTw3BoVUPeReniKZwKsFs2NqoYqmy99cff0qohJeGUzebW4lghjxu7jg6AOejDGEq9DK/C/OqTjH+pBGBt9l59M9rL379L+sPQ3xNwQLG3DqiTCyDjU+10OtVgE6mm86pcBbUjcaLXnB2M930XFQfqgZe5rPsAtQA3LrkOuMldG+TcffRL9beE9EUDhlrnyVhtb1Wjr2/ezDJrV+ZaAn/GagaL6pQMO/XovxAfSIuAtLGy3weXzyJuSE9nfERDCMI45k+AOOv2xuy3STpTNA2okQsg3RbPYb5zLvtlfnYW++UCWYMYVkfJvpRVOFKDb3M4+iAuQFCM9PNNCTnGS1BJW0jhAPjAC7+UPKZyWXsjSMKxNLzKnuZXj2S7ocTyHTTvx33eaZ2vVcU/ZjPE2m8O7u8uR/jtovJ8Ye+o8mE5n/9Pz5a2/989UC1SbbhewXn0AhlabVMA0okYy9+ViCWQa6yEXe0jRjX446gKZ70w3EcBFODeHo0EMGsmaB+3xO/Rcwf/9Z//6e/zt7aqGdvbS7FPczeZvyB7hvlPBHenfjFGB8ExR5CAvAuW0G+0gyxvLW5BNDPVKSmXIdiX1qh1MNErHlAfimKYphgVdm/hv26itglYJsZTRA3pXhockIL0SrKSQnxMVHxWMzPh3/upbs1EMW/iD1AReGPBoIZWx5wq70yn4/ihf1ZtgofnAjpENBkcKOf6jdlRN94BAt9GyFU0couTUsZs2VkgBKx7DdD3Q88Doxy+858rBE+5YKJGL3MqGLeQQw/3nF5KmDaAbjeT/caIp6jEeI82g4RintrZal+tgD/MuWiPna+m7HV3ihH4ggch6p85XEkMIc5gBix3I6CaROh44cufTGxHO9GSaim+ukvs7fub2dvbS7J8uvhOFxUHWw/mYQpZjyYLVRj70ETwsXzKlOM7QmKw3YyTxDbtptALJs6iKUqtPAwEeVA9ueIJpfpJ79pzJCK4RBwD4ya9HwOx9gVkM/C2Oo7KD1cK4u3bxATe5UDOn3CXFzf/RGx1KYjQEVbiRYepke6my5FtnfwKIxIKg4zvXRiS/+9iw4THmSXN1vZ5Y2SeJ2n47eJuHhp4uedcM3zUGSnpjnMFqqVCb3KAS7yMYplKUg5aSOW3m8nUaPxjiP6oew+kfVlxucla0+HCLX0k3RNBiWczNiN6cfgefnpxyhJQZCehLwartxeL8dS7BLTmTwy3vO+tzIf+0VRGw/Tw5/Iw7wa8dtMdTPdSD5olyixXuYzTDHjnW6m15q9vVkRj/N4/Ck+LvL+6qUJ8S5q3fNoSc+mXswUqrnZxWqDGQ9CEUvCalximV3emAvG3GmH3/qmAK0EE35oM7MUeQENI5KqsmAEX/RhZXMQ4TwDTzQzj8MRzcBTrWYXqk3fexWU4Q8gWKzWUowvQ4w67WYOokkpPYuOOcuj9NM9JduZtArJHhLDl9Vpr8xHcnhb3JMZBh0wKnH3TpnA2EO2T4Ow6h2wEqaND+977F3AEg9qJcI9v1y8FMdsYd3FUtXgdejoYSJo02CiKFtNpqIaBceOI3spT2YKhGp2ebPlb18XnuKJWoie5gDGje55tGYL1Yp3kIf2usJzeJ+v9zl7n3ewHzVUsSHCu3GIpR8FYieObSMTQMrOWC09zEOinAIU7RYTwwayK8IvVOmmS1IY9C2Bp/lPAGZCfulBIdYBauJxhkekHuW37LTXy7GE2LO37m8rn+BzBv1U7/uqBqdo6WEe0l5ZqAN8M4rXdsDRPYDM4mUOgV+okum1BgOcBQSeptPDXwAIe3n0IJ8sHmcozBSquWyhWo/Ko/wObjyDXQbpJL3FEsCWyiljWgsmIhbNyCA1FVyGchimbUpR0ICvf7n2V4FoRsFT4cwuVmvewR/R+1jJxR8svphdqDZTjC+DMYeRRpLiCsX60Twjai/UVu1qHZI9Stjh2Sgn3Vu2wSROOkxUiipUbhLTucULv/UHhc9DLQI6AQLuuYz6VxvlxH/uJ+FdLNJAiRlveV9PTG+7214vR36hMWgWtrJin0O09zAPOeJpat+2EeTktlTbYSBTxPxxdvl+4qto91vrB6EXAZ0AA68T4ePsYlW8ziMEuylLhx5lEHqNLQpCFH0odhDVUVdEMxqsfH6yMR7mIWFNy4+y6Mdj9vZmJfiBCePAtNNPd4tJ34oSSbvJcHhCXe8TGkmaVRtslSkSo6hyapc/yWa9HPkkG4Omkyn3LmGiYCK4FfUyvfokX3TUg3sNCnPoTAfgfNIXWSsUzUN2iNDgPhpx5NPiJjtfnaMUisz+5g8til76hO9HfVG5+OqbL1565Y1/ivI9woNvDqKMajFSMA8J5hzWRvY2mVfbdxYiD3dIe0lY6PFjUYkGonlIsFQcTbhomiigwQzfPAF5hh/21uo36tdXrJUjDz/+u//8dxU35ZoQBYts+f+oGC2YOPQ2z/WG74Ni2sn0Uvk4ev8MCndoT5RFWqbgr4VibGt2wHfA2CYHTdfFtutgW6cQrieOTMg5DubYRX7iLSHR08k8Ri6OXtns8qbnXb4Y9ftMiopF0SdhvGAeMqhM7RbBztKJvUTMq5leZimuRvkk78iMhJgiAzoT5oaTSGFswUGL4Pcpfp55jM+jEoFgeMAcAzkCcmDMMWPaAHF8jri8S123kDwP3W2vvKZNn7Y1gnmU6ZdvXHAdd4aBaSJMg9FyHXf/m5/+ONYJJ5deeSN38dU3v4zzPa2HefvRZx+9+/VnHxlS2Rc+l15YzF38QcG7iJm4B/MAfGQoA8H7TY7yu5wB40LwZ2eA4P+2g/Xf/HytuN9aP4jyTX73v/xdoe+4/3ucFb/jwMDqf/37v/nz/c9XI/08RsFKwdSJ7PKm5w0Yd9PVHvE2/WXEUoltDbGEYmfe/iSX6qd1C+s/j6a/b2P6MM2FjCuKMAKiG/4orwSzt1auEHBPtR3C5BDFM+M31UtVtBdLYNdf86ghIpiR44pgRoUvmsmeQ5t+7De3Rz7cQIiUTvoAkQ/r8LxLQ8bfFXVdyCCCGT0imFFCqF6+fd/EXF4oeF5Jn/xcpvYTsIQTqcfoXeoNo6xz37UIZsT4Xz6TeAARQsz1i6+8EfY6LGN4uFZuMcez0UIInz6Jd+nj5y31Xi4vghkLEpaNmKnpl0t/otoIlQSD0++qtkMYDQLuxdG3murrmRN8it8fr7mNIpjxQA5p08htK67T1/v2HAPt9fKS5DMNIwbvcjBgnXWOQHTiGiYzKSKYMeBKpWz0EM0lOZd5iOQzjWJ3b60c+QQbf6CLvpWx/rxoE8QSIpjxEGxFkUMsYoi5nvQl1H54j6B9aEvwvcuYinBIY+/SrOUKIphxwZzYyTQxMtXL9BLdm+nRXivXpT9TezqZA0R+JvjFPtoOTvGXKhgjlhDBjA8CJf4gjwMGXp+9tanFZgOVBP2ZEtXQFUIjllaSfkrT34KZG4hEMGMimLa/q9qOJMAgrUvT48A/jCU0qy/96It9MLioa5jXN1MsIYIZN6x/47ANEF/NLm9onLeJh/Zaue5vDRF0YzeuPaLBvk+NMFcsIYIZL8GDIl5mLJBcTuCfmOJl6kcs3mWQv9SoOtZssYQIpgrEy4yJK+JlAr4nQ1hVbYfwLZnHiEU00r10Lo73GYIOwC+ZLpYQwYwf8TJjhB3xrrwD+sD3MqUASAMIuBdHsY+Po0U4dte01pHTEMFUAMncz3gY5DLnVJuhGu+AphgmyghnwxR9K4k2MO1kuuk5W8QSIphq2Lsz35Q+ubhw5HICIFgfJV6mWjp+IVYS8AepvzZnygSfYRHBVES6m5Y+uVhgDcvq40e8TA1IhnfZ8Yt77ixYeVEVwVSEd/Ni0nlklTVckbDsgB7iKTYRTiCm3stDmDnepQ/+GkM/X2ntcyaCqRB/xiyzVDBGDJGOzdvxE8yZledNDbH1Xh4htvcjwrvtO69Zla88DhFMxfg74GTBdKQwa1EtqAUkXqYSiOL/3APxijbtM/AqX9p7fz4R7XIimIrxk+LkSj4zWjQdPh0/wTopaWuKGVXh8Ajz1h0wyknwKo8igqkBgweOpWcwQoKpJ8KAJBSf6ANjyw+HKyD9JB12dXSHCO9muulc+8584orIRDA1ob2yUPceRNV22IpGU0/U40pYNlYcdZ93q3Z9nxhh5PCfCuXe+/MV29pFhkUEUyP8PIAUAUUCE4tgBgTFJ5ICiIk49l6eht/3zbg+1nc+yFHeTLpQHiKCqRl+/5KIZugQkQjmEQhoqrYhERBWYxuFdwqeaHqiF0SxTsthd/yhKoxyP9X7fpCjrCddKA9JqzZAeB5PNLPLmxpvShdMhweC+bpqO2xHp6rkQPQq3j8zb3+SS/XSL5ODF13QtuPyfi/daz1874dKcq2mIIKpKZluuthN95sgvqraFsE+iLDNrNoK69kNqpK1IxBGEccRkZCspni3wUwvlZfwrBAF6YP4mtoTjFQjW4YIpsZ4oik5zXBwQSIQR9Ahr2Y7fZndax0imAYgojk5jssiEM8jE6aiY0dV76UQHSKYhjCY/s83VdthKnt35rXMJSmFIZeIqBDv0kpEMA3CH24wbj9VkpFZvUK8dFT3XgrRIIJpGJ6n1E/15kQERoCk51CIDyLUJEdsJyKYBvLwvR+2pIJ2ePqproTHjoMwrdoEC+mkDyQcaysimIbytIJ2kNeUEO3JbEkz9olIj2/IiHdpNyKYhtNeWaj7IVpgS7UtOkKMROzpG5VcvireZfjsindpNyKYFuB5UO2V+TwYZfE2v8OWVMceT+8C5lTbYBtEKIl3aTcimBbRvjNfE2/zKZ1+qldSbYSQEAiruo7BE8JDBNMynnqbic9t8pLkLoWY2M0cQBbAJwARTEtpryzUj6zzSRbMq97fX7UZQiLowEVRQrHJQATTYlq16/t7789X+qne9xPTguKJpV89LJyGDF8PCcJSsJBbSACk2gAhPgY78FIVEN1QbUskiFiORHaxKgu+JoFws71WlkhGghAPM0H4+c07CyVLPc6miOWIsBSHTcBdEcvkIYKZQA6F0yX3f7SkMKjz9acfymD6ESFHRgaOAxHeba+XpcgngYhgJphfv7/4t5luOudX1Bo7m5buen+HR599JBWxI8J9GRA+Bo29tbIMw0goksMUnpJd3pgDnBLARQBXVNtzBlsAL7VXFqTgYgKyi9VtGZE3NJ1Hv1h7+etfrn+h2hBBDSKYwrFoKp4dMDf66X5FeizDIVuolsD4QLUdBrADFyWpiE02IpjCmQyqa9NFIuQZyAOYivP9CbjH4Eamm2m0atel3y1kxMs8A8Jq5gBL0mspiGAKI/O9P/pP0+Q6OYBmAJ7xNBXA+UuvvJnz/weE3JH/ee6Ulxp4iYwDAA9dx93/5qd/4x1Ku0RoMejh159+KOGviLn4e4szl36/8L8BKKq2RSO2nR7u7bfW/lZCsMIhIpiCIPhkC9U6GHb26A7PDhGWZC6scBwimIIgPCW7WK0BeEu1HQrYBaEivZXCaYhgCoLwHYJCoFrcuWpFiFAKQyOCKQjHMPP2JznHzcw54Dl2OQeiw1zstVP+2O63eVlukUMt9v7N1Er30tsmFSxl56tzcFC3thiIseX9/UQohVEQwRSEgMu37xfJdYsgykfUStMBsE2EpgvaPvck1dRdRLOL1SUAFUu8zQ4IDfRRk/YQYRxEMIVEk1t6MN0711ti9vcZxi8KTDsgNJnQ/Or917ScvJPLV6d7F6DuM5oQvy2J0MgcoCGtIcIkiGAKiWX21maeyQ87ajWY4dE//M17urbTBPnNJd1DtSKSQhSIYAqJJLu8UQJI1wk33gG/lemmS7qGbGcK1VyK/b7Nkibiuet76i4a556gKSIpRIEIppA4BmP/6Geq7RiCDhFq6Sfpmq7CiUPxHEyAyoMRVf73WXZA/hLsJvrYlpykEAcimELiyN7aqBu2RLsDRqV9Z76m2pBhCHKec56AMpCDi5dB+IOxXizY2UkOmgy0CGjJUAFBFSKYQuLILm/um1i8AmCrn+qVTB08f0RITyV9gG0JqQo6IoIpJI7s8iartmECOgDnZa2ZIMSPLJAWksiWagMmYAqg5iAPKwhCnIhgCgmETZ/uMgV2TP87CIJxSEhWSCTZW/e3QaxDO8QE8M32yoIIpyDEhHiYQiLJ9FL5YFSdwVBJtQWCkCREMIVEMuhr5HwwMF0QBOFMRDCFxNJeWdjOdNNzhhcBCYIQEyKYQqLxPM32ynwejLJpIVoiSAO/IMSICKYgeN7mnflaP9WbA/OqaluGZDf9JG3E5B9BsAWpkhWEZ5h5+5NcqpeqaDw+T4YXCIICRDAF4QR84exnlgAuaTRKbyvTTRd1HsYuCLYigikIQ3D59v0iuW4RREVF4rlFjMrenXnJWwqCIkQwBWFEZm9t5uEgz4NVVtcieyOmHRCa/VS3ZurAdUGwCRFMQZiQYK7rHBHlfBFlmh5zitAugBYIf+uSu/3rv1j8PAJzBUEYk/8vAAD//0sxlVFe9AIzAAAAAElFTkSuQmCC;" vertex="1" parent="1">
          <mxGeometry x="325" y="375" width="30" height="30" as="geometry" />
        </mxCell>
      </root>
    </mxGraphModel>
  </diagram>
</mxfile>
